<?xml version="1.0" encoding="UTF-8"?>
<svg version="1.1" xmlns="http://www.w3.org/2000/svg" width="768" height="643">
<path d="M0 0 C0.66 0 1.32 0 2 0 C2 0.66 2 1.32 2 2 C2.90492188 1.98259766 2.90492188 1.98259766 3.828125 1.96484375 C5.02695313 1.95130859 5.02695313 1.95130859 6.25 1.9375 C7.03890625 1.92589844 7.8278125 1.91429687 8.640625 1.90234375 C10.91831569 1.99661903 12.81715388 2.37033285 15 3 C15.99 3.2475 15.99 3.2475 17 3.5 C20 4.25 20 4.25 23 5 C23 5.66 23 6.32 23 7 C23.7425 7.28875 24.485 7.5775 25.25 7.875 C31.38461538 10.38461538 31.38461538 10.38461538 34 13 C34.33 12.34 34.66 11.68 35 11 C35.99 11.33 36.98 11.66 38 12 C38 12.99 38 13.98 38 15 C37.01 15.33 36.02 15.66 35 16 C35 19.96 35 23.92 35 28 C35.66 28 36.32 28 37 28 C36.505 29.485 36.505 29.485 36 31 C35.34 31 34.68 31 34 31 C34.04125 32.27875 34.0825 33.5575 34.125 34.875 C34.1953125 37.0546875 34.1953125 37.0546875 34 39 C33.01 39.99 33.01 39.99 32 41 C31.2139034 42.61941456 30.49074827 44.27003765 29.8125 45.9375 C29.44769531 46.81277344 29.08289063 47.68804687 28.70703125 48.58984375 C27.71926098 51.10859622 27.71926098 51.10859622 29 54 C27.68 54 26.36 54 25 54 C25 55.32 25 56.64 25 58 C24.34 58 23.68 58 23 58 C21.92474806 60.65228812 20.90543849 63.28368454 20 66 C19.195625 66.78375 18.39125 67.5675 17.5625 68.375 C14.88833455 70.77608186 14.88833455 70.77608186 13.9375 73.6875 C12.77191906 76.56259966 11.75856723 76.79312684 9 78 C8.34 78.99 7.68 79.98 7 81 C-10.08834251 93.51958427 -10.08834251 93.51958427 -19 93 C-19 92.34 -19 91.68 -19 91 C-18.34 91 -17.68 91 -17 91 C-16.34 89.35 -15.68 87.7 -15 86 C-14.34 86 -13.68 86 -13 86 C-12.731875 85.4225 -12.46375 84.845 -12.1875 84.25 C-11 82 -11 82 -9.375 79.9375 C-7.7106265 77.9882168 -7.7106265 77.9882168 -8 75 C-7.4225 74.46375 -6.845 73.9275 -6.25 73.375 C-1.37207257 68.2260766 0.42584061 61.06697382 2.2890625 54.359375 C3 52 3 52 4.05078125 49.59375 C5.15610209 46.57344944 5.3804321 43.95749399 5.5625 40.75 C6.51931226 25.96137549 6.51931226 25.96137549 8 23 C7.21625 23.350625 6.4325 23.70125 5.625 24.0625 C4.75875 24.371875 3.8925 24.68125 3 25 C2.34 24.67 1.68 24.34 1 24 C0.67 24.66 0.34 25.32 0 26 C-0.99 26 -1.98 26 -3 26 C-3.37125 26.9590625 -3.37125 26.9590625 -3.75 27.9375 C-5 30 -5 30 -6.9375 30.5625 C-7.618125 30.706875 -8.29875 30.85125 -9 31 C-10.0194119 31.98020375 -11.02246356 32.97803008 -12 34 C-12.66 34 -13.32 34 -14 34 C-15.27695631 35.47341112 -16.54934623 36.9518978 -17.76953125 38.47265625 C-19.97630934 41.21186334 -22.05969988 43.03979992 -25 45 C-25.33 45.99 -25.66 46.98 -26 48 C-26.66 48 -27.32 48 -28 48 C-28.28875 48.886875 -28.5775 49.77375 -28.875 50.6875 C-29.83148748 53.50382424 -30.86798946 56.25083156 -32 59 C-32.66 59 -33.32 59 -34 59 C-33.95875 59.70125 -33.9175 60.4025 -33.875 61.125 C-34.01829999 64.42089973 -34.75363881 66.9533393 -36 70 C-36.99 70.495 -36.99 70.495 -38 71 C-37.98839844 71.62648438 -37.97679687 72.25296875 -37.96484375 72.8984375 C-37.95582031 73.71570313 -37.94679687 74.53296875 -37.9375 75.375 C-37.92589844 76.18710937 -37.91429687 76.99921875 -37.90234375 77.8359375 C-38 80 -38 80 -39 82 C-39.08400529 83.59447464 -39.10727467 85.19240545 -39.09765625 86.7890625 C-39.09443359 87.73007812 -39.09121094 88.67109375 -39.08789062 89.640625 C-39.07951172 90.62546875 -39.07113281 91.6103125 -39.0625 92.625 C-39.05798828 93.61757813 -39.05347656 94.61015625 -39.04882812 95.6328125 C-39.03702145 98.0886016 -39.020554 100.54427104 -39 103 C-38.01 103.495 -38.01 103.495 -37 104 C-36.375 106.0625 -36.375 106.0625 -36 108 C-34.35 108.33 -32.7 108.66 -31 109 C-31 109.66 -31 110.32 -31 111 C-30.38125 111.144375 -29.7625 111.28875 -29.125 111.4375 C-27 112 -27 112 -25 113 C-24.67 112.34 -24.34 111.68 -24 111 C-24 111.66 -24 112.32 -24 113 C-17.58995948 114.17885803 -11.51713283 115.1416768 -5 115 C-4.34 115.33 -3.68 115.66 -3 116 C-3 115.34 -3 114.68 -3 114 C-1.35 114.33 0.3 114.66 2 115 C2.33 114.34 2.66 113.68 3 113 C3.99 113 4.98 113 6 113 C11.99604883 112.11533706 17.01518954 110.24198042 22.4375 107.5625 C23.05278564 107.26206787 23.66807129 106.96163574 24.30200195 106.65209961 C27.48084234 105.0266717 28.97681394 104.0347791 31 101 C34.625 100.3125 34.625 100.3125 38 100 C37.91253716 101.43861294 37.80434652 102.87597508 37.6875 104.3125 C37.62949219 105.11300781 37.57148438 105.91351563 37.51171875 106.73828125 C36.9004233 109.44011383 36.00341686 110.15181157 34 112 C33.12345306 113.47516436 32.29165286 114.97759066 31.5 116.5 C29.96604568 119.44991216 28.57993471 121.85920312 26 124 C25.34 124 24.68 124 24 124 C23.731875 124.61875 23.46375 125.2375 23.1875 125.875 C22 128 22 128 19 130 C18.34 130.99 17.68 131.98 17 133 C15.35008418 133.70710678 13.6792238 134.36562656 12 135 C10.76125866 135.6914526 9.53233869 136.40072078 8.3125 137.125 C5 139 5 139 3 139 C2.67 139.66 2.34 140.32 2 141 C-0.32156597 141.40729228 -2.6568787 141.74438677 -5 142 C-5 142.66 -5 143.32 -5 144 C-5.69867188 144.13277344 -6.39734375 144.26554688 -7.1171875 144.40234375 C-8.48230469 144.66724609 -8.48230469 144.66724609 -9.875 144.9375 C-10.77992188 145.11152344 -11.68484375 145.28554688 -12.6171875 145.46484375 C-14.99956317 145.89963701 -14.99956317 145.89963701 -17 147 C-17.33 147.66 -17.66 148.32 -18 149 C-18.33 147.68 -18.66 146.36 -19 145 C-21.31 144.67 -23.62 144.34 -26 144 C-26 143.34 -26 142.68 -26 142 C-26.93972656 141.96132813 -26.93972656 141.96132813 -27.8984375 141.921875 C-28.71570313 141.86515625 -29.53296875 141.8084375 -30.375 141.75 C-31.18710938 141.70359375 -31.99921875 141.6571875 -32.8359375 141.609375 C-35 141 -35 141 -36.2890625 138.953125 C-36.52367187 138.30859375 -36.75828125 137.6640625 -37 137 C-38.32 137.33 -39.64 137.66 -41 138 C-41.33 137.01 -41.66 136.02 -42 135 C-43.94603274 134.40929986 -43.94603274 134.40929986 -46 134 C-48 132 -48 132 -50 129 C-51.485 128.01 -51.485 128.01 -53 127 C-54.1875 124.875 -54.1875 124.875 -55 123 C-55.66 123 -56.32 123 -57 123 C-57.61875 122.05125 -58.2375 121.1025 -58.875 120.125 C-60.66136384 116.94001565 -60.66136384 116.94001565 -63.1875 115.9375 C-64.0846875 115.4734375 -64.0846875 115.4734375 -65 115 C-65.38218767 113.34385343 -65.71395102 111.67542976 -66 110 C-66.495 109.505 -66.99 109.01 -67.5 108.5 C-69.49901075 106.50098925 -69.62890981 104.74606742 -70 102 C-70.66 102 -71.32 102 -72 102 C-72.103125 101.071875 -72.20625 100.14375 -72.3125 99.1875 C-73.05184735 94.04375484 -74.23246363 88.88821064 -76 84 C-76.66 83.67 -77.32 83.34 -78 83 C-77.84152588 82.42926758 -77.68305176 81.85853516 -77.51977539 81.27050781 C-77.00638657 79.02789812 -76.79834104 76.96682085 -76.68359375 74.671875 C-76.64169922 73.87265625 -76.59980469 73.0734375 -76.55664062 72.25 C-76.51732422 71.425 -76.47800781 70.6 -76.4375 69.75 C-76.39431641 68.90953125 -76.35113281 68.0690625 -76.30664062 67.203125 C-76.20091457 65.13559329 -76.09998705 63.06781719 -76 61 C-75.34 61 -74.68 61 -74 61 C-74.061875 59.7315625 -74.061875 59.7315625 -74.125 58.4375 C-73.84366459 50.70077627 -70.5697514 43.85411665 -66.875 37.1875 C-66.33617187 36.21167969 -65.79734375 35.23585938 -65.2421875 34.23046875 C-64.83226562 33.49441406 -64.42234375 32.75835937 -64 32 C-63.34 32 -62.68 32 -62 32 C-61.7834375 31.1028125 -61.7834375 31.1028125 -61.5625 30.1875 C-61.1127561 28.43849596 -60.57107659 26.71322977 -60 25 C-59.01 25 -58.02 25 -57 25 C-56.773125 24.401875 -56.54625 23.80375 -56.3125 23.1875 C-54.64390958 20.40651597 -52.8716168 19.4358084 -50 18 C-49.34 18 -48.68 18 -48 18 C-48 17.34 -48 16.68 -48 16 C-46.03125 14.4921875 -46.03125 14.4921875 -43.5 12.875 C-42.6646875 12.33617187 -41.829375 11.79734375 -40.96875 11.2421875 C-40.3190625 10.83226562 -39.669375 10.42234375 -39 10 C-39.495 9.01 -39.495 9.01 -40 8 C-36.535 7.505 -36.535 7.505 -33 7 C-33.495 6.01 -33.495 6.01 -34 5 C-32.783125 5.04125 -31.56625 5.0825 -30.3125 5.125 C-26.72448287 5.13130583 -24.29424697 4.47374207 -21 3 C-19.01014051 2.61067967 -17.00800456 2.28112064 -15 2 C-13.865625 1.814375 -12.73125 1.62875 -11.5625 1.4375 C-8.00595208 1.00073096 -4.57793781 1 -1 1 C-0.67 0.67 -0.34 0.34 0 0 Z M7 31 C8 34 8 34 8 34 Z M-64 113 C-64 113.66 -64 114.32 -64 115 C-63.34 114.67 -62.68 114.34 -62 114 C-62.66 113.67 -63.32 113.34 -64 113 Z " fill="#4449C2" transform="translate(226,267)"/>
<path d="M0 0 C0.77601563 0.07863281 1.55203125 0.15726562 2.3515625 0.23828125 C4.375 0.6875 4.375 0.6875 6.375 2.6875 C7.365 2.6875 8.355 2.6875 9.375 2.6875 C9.375 3.3475 9.375 4.0075 9.375 4.6875 C10.1175 4.97625 10.86 5.265 11.625 5.5625 C17.75961538 8.07211538 17.75961538 8.07211538 20.375 10.6875 C20.705 10.0275 21.035 9.3675 21.375 8.6875 C22.365 9.0175 23.355 9.3475 24.375 9.6875 C24.375 10.6775 24.375 11.6675 24.375 12.6875 C23.385 13.0175 22.395 13.3475 21.375 13.6875 C21.375 17.6475 21.375 21.6075 21.375 25.6875 C22.035 25.6875 22.695 25.6875 23.375 25.6875 C22.88 27.1725 22.88 27.1725 22.375 28.6875 C21.715 28.6875 21.055 28.6875 20.375 28.6875 C20.41625 29.96625 20.4575 31.245 20.5 32.5625 C20.5703125 34.7421875 20.5703125 34.7421875 20.375 36.6875 C19.715 37.3475 19.055 38.0075 18.375 38.6875 C17.5889034 40.30691456 16.86574827 41.95753765 16.1875 43.625 C15.82269531 44.50027344 15.45789063 45.37554687 15.08203125 46.27734375 C14.09426098 48.79609622 14.09426098 48.79609622 15.375 51.6875 C14.055 51.6875 12.735 51.6875 11.375 51.6875 C11.375 53.0075 11.375 54.3275 11.375 55.6875 C10.715 55.6875 10.055 55.6875 9.375 55.6875 C8.29974806 58.33978812 7.28043849 60.97118454 6.375 63.6875 C5.1684375 64.863125 5.1684375 64.863125 3.9375 66.0625 C1.26333455 68.46358186 1.26333455 68.46358186 0.3125 71.375 C-0.85308094 74.25009966 -1.86643277 74.48062684 -4.625 75.6875 C-5.285 76.6775 -5.945 77.6675 -6.625 78.6875 C-23.71334251 91.20708427 -23.71334251 91.20708427 -32.625 90.6875 C-32.625 90.0275 -32.625 89.3675 -32.625 88.6875 C-31.965 88.6875 -31.305 88.6875 -30.625 88.6875 C-29.965 87.0375 -29.305 85.3875 -28.625 83.6875 C-27.965 83.6875 -27.305 83.6875 -26.625 83.6875 C-26.2228125 82.82125 -26.2228125 82.82125 -25.8125 81.9375 C-24.625 79.6875 -24.625 79.6875 -23 77.625 C-21.3356265 75.6757168 -21.3356265 75.6757168 -21.625 72.6875 C-21.0475 72.15125 -20.47 71.615 -19.875 71.0625 C-14.99707257 65.9135766 -13.19915939 58.75447382 -11.3359375 52.046875 C-10.625 49.6875 -10.625 49.6875 -9.57421875 47.28125 C-8.46889791 44.26094944 -8.2445679 41.64499399 -8.0625 38.4375 C-7.82564287 34.66470426 -7.56207911 30.9343433 -7.0625 27.1875 C-6.02922692 18.12136203 -6.23466673 9.50185394 -8.625 0.6875 C-5.57661559 -0.23815097 -3.16010031 -0.35405806 0 0 Z M-6.625 28.6875 C-5.625 31.6875 -5.625 31.6875 -5.625 31.6875 Z " fill="#019EE8" transform="translate(239.625,269.3125)"/>
<path d="M0 0 C0 0.66 0 1.32 0 2 C0.93384521 1.96447021 1.86769043 1.92894043 2.82983398 1.89233398 C6.28299578 1.76338667 9.73625852 1.63902888 13.18969727 1.51782227 C14.68650938 1.46433566 16.18325663 1.4090013 17.67993164 1.35180664 C19.82684332 1.27008044 21.97389793 1.1949254 24.12109375 1.12109375 C25.4145874 1.0739624 26.70808105 1.02683105 28.04077148 0.97827148 C31 1 31 1 32 2 C32.26085401 3.8056894 32.45961049 5.62057806 32.625 7.4375 C32.72039062 8.42621094 32.81578125 9.41492188 32.9140625 10.43359375 C33 13 33 13 32 15 C25.73 15 19.46 15 13 15 C13 17.64 13 20.28 13 23 C18.94 23 24.88 23 31 23 C31.22786458 25.734375 31.45572917 28.46875 31.68359375 31.203125 C31.95074584 33.56461753 32.35371968 35.71901065 33 38 C31.35 38.66 29.7 39.32 28 40 C28 39.01 28 38.02 28 37 C23.38 37 18.76 37 14 37 C14 38.65 14 40.3 14 42 C14.99 42 15.98 42 17 42 C19.0010509 42.13062416 21.00102215 42.2782677 23 42.4375 C24.051875 42.51871094 25.10375 42.59992188 26.1875 42.68359375 C29 43 29 43 32 44 C32.495 50.435 32.495 50.435 33 57 C28.19490042 57.19214323 23.38956217 57.37088308 18.58349609 57.53710938 C16.94794282 57.59558 15.31251713 57.65773919 13.67724609 57.72363281 C11.32933786 57.8176061 8.98129322 57.89838991 6.6328125 57.9765625 C5.89942657 58.00875885 5.16604065 58.0409552 4.41043091 58.0741272 C2.60757645 58.12756428 0.80217635 58.07280193 -1 58 C-3 56 -3 56 -3.22705078 53.79882812 C-3.21657715 52.88552734 -3.20610352 51.97222656 -3.1953125 51.03125 C-3.18870605 49.99677734 -3.18209961 48.96230469 -3.17529297 47.89648438 C-3.15869629 46.77564453 -3.14209961 45.65480469 -3.125 44.5 C-3.11742676 43.35337891 -3.10985352 42.20675781 -3.10205078 41.02539062 C-3.06922385 36.10269113 -3.01293668 31.18031842 -2.95898438 26.2578125 C-2.92297353 22.6718904 -2.89868508 19.08602117 -2.875 15.5 C-2.85840332 14.37916016 -2.84180664 13.25832031 -2.82470703 12.10351562 C-2.81810059 11.06904297 -2.81149414 10.03457031 -2.8046875 8.96875 C-2.79421387 8.05544922 -2.78374023 7.14214844 -2.77294922 6.20117188 C-2.78758172 3.79187049 -2.78758172 3.79187049 -5 2 C-2 0 -2 0 0 0 Z " fill="#59489B" transform="translate(271,273)"/>
<path d="M0 0 C-0.08746284 1.43861294 -0.19565348 2.87597508 -0.3125 4.3125 C-0.37050781 5.11300781 -0.42851562 5.91351563 -0.48828125 6.73828125 C-1.0995767 9.44011383 -1.99658314 10.15181157 -4 12 C-4.87654694 13.47516436 -5.70834714 14.97759066 -6.5 16.5 C-8.03395432 19.44991216 -9.42006529 21.85920312 -12 24 C-12.66 24 -13.32 24 -14 24 C-14.268125 24.61875 -14.53625 25.2375 -14.8125 25.875 C-16 28 -16 28 -19 30 C-19.66 30.99 -20.32 31.98 -21 33 C-22.64991582 33.70710678 -24.3207762 34.36562656 -26 35 C-27.23874134 35.6914526 -28.46766131 36.40072078 -29.6875 37.125 C-33 39 -33 39 -35 39 C-35.495 39.99 -35.495 39.99 -36 41 C-38.32156597 41.40729228 -40.6568787 41.74438677 -43 42 C-43 42.66 -43 43.32 -43 44 C-43.69867188 44.13277344 -44.39734375 44.26554687 -45.1171875 44.40234375 C-46.02726562 44.57894531 -46.93734375 44.75554687 -47.875 44.9375 C-48.77992188 45.11152344 -49.68484375 45.28554688 -50.6171875 45.46484375 C-52.99956317 45.89963701 -52.99956317 45.89963701 -55 47 C-55.33 47.66 -55.66 48.32 -56 49 C-56.33 47.68 -56.66 46.36 -57 45 C-56.01 44.34 -55.02 43.68 -54 43 C-56.78030083 37.85644346 -59.754799 35.43527189 -65 33 C-65 32.01 -65 31.02 -65 30 C-65.78375 29.21625 -66.5675 28.4325 -67.375 27.625 C-69.94697245 25.05302755 -70.9796587 23.43205709 -72 20 C-72 19.34 -72 18.68 -72 18 C-72.66 17.34 -73.32 16.68 -74 16 C-73.625 13.875 -73.625 13.875 -73 12 C-73.99 11.67 -74.98 11.34 -76 11 C-73.35261084 9.5393715 -72.10551666 9 -69 9 C-69 9.66 -69 10.32 -69 11 C-68.071875 11.2165625 -68.071875 11.2165625 -67.125 11.4375 C-65 12 -65 12 -63 13 C-62.67 12.34 -62.34 11.68 -62 11 C-62 11.66 -62 12.32 -62 13 C-55.58995948 14.17885803 -49.51713283 15.1416768 -43 15 C-42.34 15.33 -41.68 15.66 -41 16 C-41 15.34 -41 14.68 -41 14 C-38.525 14.495 -38.525 14.495 -36 15 C-35.67 14.34 -35.34 13.68 -35 13 C-34.01 13 -33.02 13 -32 13 C-26.00395117 12.11533706 -20.98481046 10.24198042 -15.5625 7.5625 C-14.94721436 7.26206787 -14.33192871 6.96163574 -13.69799805 6.65209961 C-10.51915766 5.0266717 -9.02318606 4.0347791 -7 1 C-4.59258404 0.33796061 -2.49346035 0 0 0 Z " fill="#4F65B7" transform="translate(264,367)"/>
<path d="M0 0 C0.66 0 1.32 0 2 0 C2 0.66 2 1.32 2 2 C3.45736087 2.19491452 4.91594593 2.38069358 6.375 2.5625 C7.18710937 2.66691406 7.99921875 2.77132813 8.8359375 2.87890625 C11.04899186 3.18237328 11.04899186 3.18237328 13 2 C13 2.99 13 3.98 13 5 C14.32 5.33 15.64 5.66 17 6 C16.01 9.63 15.02 13.26 14 17 C12.35 16.67 10.7 16.34 9 16 C9 15.01 9 14.02 9 13 C5.7 13 2.4 13 -1 13 C-0.34 13.66 0.32 14.32 1 15 C1.33 15.66 1.66 16.32 2 17 C3.95963506 17.28912648 5.92199997 17.5725666 7.89453125 17.75390625 C13.49355662 18.40833779 13.49355662 18.40833779 15.625 20.8984375 C17.78661244 24.79179627 19.21021247 27.52661887 18.56640625 32.0390625 C16.09702275 39.32230255 16.09702275 39.32230255 12.9765625 41.25 C12.32429688 41.4975 11.67203125 41.745 11 42 C7.85474188 43.30628723 7.85474188 43.30628723 6 46 C6.66 46.33 7.32 46.66 8 47 C7.34 47 6.68 47 6 47 C6.01474869 47.54679413 6.02949738 48.09358826 6.04469299 48.6569519 C6.19680067 54.3341396 6.34162847 60.01147948 6.48217773 65.68896484 C6.53563685 67.80945577 6.59096917 69.92990031 6.64819336 72.05029297 C6.72999523 75.09332272 6.80511898 78.1364542 6.87890625 81.1796875 C6.90594131 82.13181122 6.93297638 83.08393494 6.96083069 84.06491089 C6.98092697 84.94567291 7.00102325 85.82643494 7.02172852 86.73388672 C7.04171402 87.51110077 7.06169952 88.28831482 7.08229065 89.08908081 C7 91 7 91 6 93 C8.97 92.505 8.97 92.505 12 92 C12.66 93.98 13.32 95.96 14 98 C12.02 98.99 12.02 98.99 10 100 C10 100.66 10 101.32 10 102 C8.02 102 6.04 102 4 102 C4 101.34 4 100.68 4 100 C3.38125 99.95875 2.7625 99.9175 2.125 99.875 C0 99 0 99 -1.10693359 96.65185547 C-2.33084914 91.64711825 -2.35706708 86.83101251 -2.4140625 81.6953125 C-2.43342865 80.61619598 -2.4527948 79.53707947 -2.4727478 78.42526245 C-2.53233942 74.99192105 -2.57884761 71.55854576 -2.625 68.125 C-2.66319853 65.79165236 -2.70225135 63.45831854 -2.7421875 61.125 C-2.83802417 55.41678968 -2.92313112 49.70849556 -3 44 C-3.66 44 -4.32 44 -5 44 C-5 43.34 -5 42.68 -5 42 C-7.475 42.495 -7.475 42.495 -10 43 C-10 42.34 -10 41.68 -10 41 C-12.31 40.34 -14.62 39.68 -17 39 C-16.40075776 34.80530429 -15.42500059 30.99000166 -14 27 C-9.28971963 28.8317757 -9.28971963 28.8317757 -7.0625 30.125 C-4.25774668 31.31489535 -2.01269818 31.26197375 1 31 C1.66 30.34 2.32 29.68 3 29 C2.278125 28.87625 1.55625 28.7525 0.8125 28.625 C-5.04924072 27.32239095 -8.6475954 25.04874847 -13 21 C-13 20.34 -13 19.68 -13 19 C-13.99 18.67 -14.98 18.34 -16 18 C-15.67 17.34 -15.34 16.68 -15 16 C-14.96261719 15.27167969 -14.92523438 14.54335938 -14.88671875 13.79296875 C-14.65851531 10.80842567 -14.31093697 8.70699971 -13 6 C-9.20779354 3.62183662 -5.24747304 2.34492887 -1 1 C-0.67 0.67 -0.34 0.34 0 0 Z " fill="#4853A6" transform="translate(359,288)"/>
<path d="M0 0 C1.32 0 2.64 0 4 0 C4 0.99 4 1.98 4 3 C5.27875 3.20625 6.5575 3.4125 7.875 3.625 C8.59429688 3.74101562 9.31359375 3.85703125 10.0546875 3.9765625 C11.01761719 3.98816406 11.01761719 3.98816406 12 4 C12.66 3.34 13.32 2.68 14 2 C14.66 2.33 15.32 2.66 16 3 C19.3 3.33 22.6 3.66 26 4 C26 16.87 26 29.74 26 43 C21.71 42.67 17.42 42.34 13 42 C12.34 42.99 11.68 43.98 11 45 C11 43.35 11 41.7 11 40 C10.67 40.66 10.34 41.32 10 42 C2.8126226 44.3873714 -2.25087523 44.2540423 -9 41 C-9.99 40.67 -10.98 40.34 -12 40 C-13.0625 37.625 -13.0625 37.625 -14 35 C-14.66 34.01 -15.32 33.02 -16 32 C-16.26924594 29.82105091 -16.44736313 27.62999994 -16.5625 25.4375 C-16.66806962 21.05979334 -16.66806962 21.05979334 -18 17 C-17.34 17 -16.68 17 -16 17 C-15.87625 16.2265625 -15.87625 16.2265625 -15.75 15.4375 C-15.03861904 13.12551188 -14.16058925 11.44517579 -12.9375 9.375 C-10.83404416 6.35951522 -10.83404416 6.35951522 -11 4 C-9.948125 3.814375 -9.948125 3.814375 -8.875 3.625 C-5.82343613 2.96161655 -2.94659062 2.02788045 0 1 C0 0.67 0 0.34 0 0 Z M3 14 C3 14.66 3 15.32 3 16 C1.68 16.33 0.36 16.66 -1 17 C-2.05257541 20.97639598 -2.12393312 24.02300587 -1 28 C0.46041766 30.11670357 0.46041766 30.11670357 3 31 C5.9140336 31.29962846 8.28138704 31.12652884 11 30 C13.68487962 26.05164762 14.12025039 23.91690921 13.5 19.1875 C12.30528032 15.88536698 12.30528032 15.88536698 9.625 14.5625 C6.79556363 13.86031394 6.79556363 13.86031394 3 14 Z M12 37 C13 39 13 39 13 39 Z " fill="#4C51A3" transform="translate(550,288)"/>
<path d="M0 0 C1.43791516 0.14168137 2.8753237 0.28851043 4.3125 0.4375 C5.11300781 0.51871094 5.91351563 0.59992188 6.73828125 0.68359375 C9 1 9 1 12 2 C12 2.66 12 3.32 12 4 C12.66 4 13.32 4 14 4 C14.495 4.99 14.495 4.99 15 6 C15.66 5.34 16.32 4.68 17 4 C17.92808938 12.25026468 18.1230629 20.3903828 18.0625 28.6875 C18.05798828 29.87794922 18.05347656 31.06839844 18.04882812 32.29492188 C18.03717465 35.19663683 18.01924471 38.09832546 18 41 C13.05 41 8.1 41 3 41 C2.505 28.13 2.505 28.13 2 15 C1.01 15.495 1.01 15.495 0 16 C0 15.01 0 14.02 0 13 C-2.31 13.66 -4.62 14.32 -7 15 C-7.7962151 20.83445012 -8.27042615 26.62021829 -8.5625 32.5 C-8.60568359 33.32242188 -8.64886719 34.14484375 -8.69335938 34.9921875 C-8.79813986 36.994659 -8.89943769 38.99731224 -9 41 C-13.62 41 -18.24 41 -23 41 C-23 28.46 -23 15.92 -23 3 C-20.16443413 1.58221707 -18.0091294 2.13742378 -14.875 2.4375 C-13.77929688 2.53933594 -12.68359375 2.64117187 -11.5546875 2.74609375 C-10.71164062 2.82988281 -9.86859375 2.91367187 -9 3 C-8.67 3.99 -8.34 4.98 -8 6 C-7.34 5.01 -6.68 4.02 -6 3 C-2.875 1.8125 -2.875 1.8125 0 1 C0 0.67 0 0.34 0 0 Z " fill="#504EA1" transform="translate(451,289)"/>
<path d="M0 0 C0.33 0.66 0.66 1.32 1 2 C2.19625 2.12375 3.3925 2.2475 4.625 2.375 C10.44136238 2.97956813 14.3907363 5.17326823 18.3125 9.625 C18.869375 10.40875 19.42625 11.1925 20 12 C20.66 12.66 21.32 13.32 22 14 C22 14.66 22 15.32 22 16 C22.495 17.485 22.495 17.485 23 19 C22.67 21.64 22.34 24.28 22 27 C13.09 27 4.18 27 -5 27 C-5 28.32 -5 29.64 -5 31 C-1.37 31.66 2.26 32.32 6 33 C6.33 32.01 6.66 31.02 7 30 C11.18195213 29.04955633 13.31039852 28.78623911 17 31 C18.3242287 31.36784131 19.65613912 31.71202981 21 32 C20.61932203 34.61929172 20.21295682 35.79191633 18.29296875 37.66796875 C17.59816406 38.16941406 16.90335937 38.67085938 16.1875 39.1875 C15.50042969 39.69667969 14.81335938 40.20585937 14.10546875 40.73046875 C7.55903263 44.67776326 -1.82472349 43.55141114 -9 42 C-9 41.34 -9 40.68 -9 40 C-10.299375 39.8453125 -10.299375 39.8453125 -11.625 39.6875 C-16.98408289 37.00795856 -19.10210406 32.56716142 -21 27 C-21.11628044 23.9922126 -20.86761951 21.36677763 -20.33203125 18.41015625 C-19.99026154 15.92931022 -20.22834842 14.3587364 -21 12 C-20.01 12.33 -19.02 12.66 -18 13 C-17.731875 12.195625 -17.46375 11.39125 -17.1875 10.5625 C-16.795625 9.716875 -16.40375 8.87125 -16 8 C-15.01 7.67 -14.02 7.34 -13 7 C-9.34854264 5.15470311 -9.34854264 5.15470311 -7 2 C-4.03 2.495 -4.03 2.495 -1 3 C-0.67 2.01 -0.34 1.02 0 0 Z M-3.9375 14.4375 C-4.618125 15.283125 -5.29875 16.12875 -6 17 C-1.38 17 3.24 17 8 17 C7.01 16.34 6.02 15.68 5 15 C5.33 14.34 5.66 13.68 6 13 C0.61587883 11.56810462 0.61587883 11.56810462 -3.9375 14.4375 Z " fill="#4B51A4" transform="translate(400,288)"/>
<path d="M0 0 C2.64 0 5.28 0 8 0 C8 0.33 8 0.66 8 1 C13.94 2.485 13.94 2.485 20 4 C19.34 6.97 18.68 9.94 18 13 C17.34 13 16.68 13 16 13 C16 13.66 16 14.32 16 15 C15.34 15 14.68 15 14 15 C13.67 15.66 13.34 16.32 13 17 C12.67 16.34 12.34 15.68 12 15 C12.33 14.34 12.66 13.68 13 13 C11.56465159 12.7773254 10.12654475 12.57238094 8.6875 12.375 C7.88699219 12.25898438 7.08648437 12.14296875 6.26171875 12.0234375 C3.71276785 11.78466593 3.71276785 11.78466593 1 14 C1.556875 14.07476562 2.11375 14.14953125 2.6875 14.2265625 C9.00190307 15.31451708 13.4136698 17.48885554 18 22 C20.43969212 25.54864308 21.08493005 27.08275541 20.6875 31.375 C20.460625 32.24125 20.23375 33.1075 20 34 C19.34 34 18.68 34 18 34 C18.33 34.99 18.66 35.98 19 37 C18.38125 37.28875 17.7625 37.5775 17.125 37.875 C14.86674235 38.93720042 14.86674235 38.93720042 13 41 C9.2629651 42.39586646 5.37849775 42.13270479 1.4375 42.125 C0.76525391 42.12886719 0.09300781 42.13273437 -0.59960938 42.13671875 C-3.67499752 42.13061073 -6.06026313 41.97991229 -9 41 C-9.99 41.495 -9.99 41.495 -11 42 C-11.495 40.515 -11.495 40.515 -12 39 C-12.66 39.66 -13.32 40.32 -14 41 C-14.33 38.03 -14.66 35.06 -15 32 C-14.34 31.67 -13.68 31.34 -13 31 C-13 29.68 -13 28.36 -13 27 C-10 26 -10 26 -8.1328125 26.77734375 C-7.13894531 27.35162109 -7.13894531 27.35162109 -6.125 27.9375 C-2.89824761 29.65448751 -0.72165145 30.53166449 3 30 C3.99 29.67 4.98 29.34 6 29 C3.34105979 27.57556774 0.91995415 26.70786767 -2 26 C-3.6744239 25.3530635 -5.34302621 24.69040574 -7 24 C-7 23.34 -7 22.68 -7 22 C-8.65 22 -10.3 22 -12 22 C-12.02712153 20.083412 -12.04645097 18.1667127 -12.0625 16.25 C-12.07410156 15.18265625 -12.08570313 14.1153125 -12.09765625 13.015625 C-12.01510087 10.46631499 -11.74617558 8.42066409 -11 6 C-10.34 6 -9.68 6 -9 6 C-9 5.34 -9 4.68 -9 4 C-6 2 -6 2 -3 1 C-2.01 1.33 -1.02 1.66 0 2 C0 1.34 0 0.68 0 0 Z " fill="#4A52A4" transform="translate(487,289)"/>
<path d="M0 0 C5.61 0 11.22 0 17 0 C17 0.66 17 1.32 17 2 C17.99 1.67 18.98 1.34 20 1 C20 1.66 20 2.32 20 3 C21.32 3.33 22.64 3.66 24 4 C24 5.65 24 7.3 24 9 C23.34 9 22.68 9 22 9 C21.67 10.65 21.34 12.3 21 14 C19.96875 13.690625 18.9375 13.38125 17.875 13.0625 C14.61027443 12.12497188 11.36386538 11.49227298 8 11 C8.33 12.32 8.66 13.64 9 15 C9.99 14.67 10.98 14.34 12 14 C12 14.66 12 15.32 12 16 C13.2684375 16.0928125 13.2684375 16.0928125 14.5625 16.1875 C18.89719825 17.21206504 22.19904926 18.41756853 25 22 C25.88008718 25.68083521 26.04628413 29.22453745 26 33 C25.34 33 24.68 33 24 33 C23.5875 33.763125 23.175 34.52625 22.75 35.3125 C20.50422459 38.76136938 18.8303761 39.50606647 15 41 C12.02716506 41.33848766 9.11188509 41.28621908 6.125 41.1875 C4.949375 41.16719727 4.949375 41.16719727 3.75 41.14648438 C1.83303218 41.11141789 -0.08357751 41.05762072 -2 41 C-2 40.34 -2 39.68 -2 39 C-2.78375 39.020625 -3.5675 39.04125 -4.375 39.0625 C-7 39 -7 39 -9 38 C-9 37.01 -9 36.02 -9 35 C-9.66 34.67 -10.32 34.34 -11 34 C-10.505 33.4225 -10.01 32.845 -9.5 32.25 C-7.63019987 29.89599371 -7.63019987 29.89599371 -8 26 C-7.34 26 -6.68 26 -6 26 C-5.67 25.34 -5.34 24.68 -5 24 C-4.34 24.66 -3.68 25.32 -3 26 C0.09926819 25.67801034 0.09926819 25.67801034 3 25 C2.67 26.65 2.34 28.3 2 30 C4.97 29.67 7.94 29.34 11 29 C9.39412039 25.94441892 9.39412039 25.94441892 7.25 25.375 C5.46263349 25.07710558 3.66952005 24.81373281 1.875 24.5625 C-1 24 -1 24 -3 22 C-3.70125 21.484375 -4.4025 20.96875 -5.125 20.4375 C-7.92412743 16.79863434 -7.54684978 13.43820108 -7 9 C-6.0625 6.0625 -6.0625 6.0625 -5 4 C-4.67 3.34 -4.34 2.68 -4 2 C-2.68 2 -1.36 2 0 2 C0 1.34 0 0.68 0 0 Z " fill="#4754A6" transform="translate(316,290)"/>
<path d="M0 0 C0.33 -0.66 0.66 -1.32 1 -2 C3.13586678 1.20380017 3.23132175 2.01939967 3.125 5.6875 C3.10695313 6.49574219 3.08890625 7.30398438 3.0703125 8.13671875 C3.04710937 8.75160156 3.02390625 9.36648438 3 10 C2.07380859 9.7834375 2.07380859 9.7834375 1.12890625 9.5625 C-5.59251017 8.08931284 -12.33602705 6.77867568 -19 9 C-19.79953138 12.28696233 -20.09658936 13.71023192 -19 17 C-16.69 17.33 -14.38 17.66 -12 18 C-12 18.66 -12 19.32 -12 20 C-11.01 19.01 -10.02 18.02 -9 17 C-8.34 17.33 -7.68 17.66 -7 18 C-6.896875 18.639375 -6.79375 19.27875 -6.6875 19.9375 C-6.18296375 22.18086874 -6.18296375 22.18086874 -4 23.25 C0.03580326 24.25895081 3.86302753 24.16223421 8 24 C8 24.66 8 25.32 8 26 C6.35 26.66 4.7 27.32 3 28 C3.37125 28.78375 3.7425 29.5675 4.125 30.375 C5.31720355 35.31412901 4.58973252 39.21432853 3 44 C-0.14625025 48.5445837 -5.12432462 50.25727589 -10.359375 51.609375 C-13.31007056 52.04586843 -15.85075713 51.88365284 -18.8125 51.5625 C-19.78832031 51.46066406 -20.76414062 51.35882813 -21.76953125 51.25390625 C-22.50558594 51.17011719 -23.24164063 51.08632813 -24 51 C-24 50.34 -24 49.68 -24 49 C-24.969375 48.855625 -25.93875 48.71125 -26.9375 48.5625 C-30 48 -30 48 -31 47 C-31.07179964 45.48071962 -31.08392007 43.95832518 -31.0625 42.4375 C-31.05347656 41.61121094 -31.04445313 40.78492188 -31.03515625 39.93359375 C-31.02355469 39.29550781 -31.01195312 38.65742188 -31 38 C-30.01 38 -29.02 38 -28 38 C-28 38.66 -28 39.32 -28 40 C-26.948125 40.144375 -25.89625 40.28875 -24.8125 40.4375 C-22.69806863 40.74946528 -20.58519152 41.09333191 -18.5 41.5625 C-15.1811163 42.14330465 -12.36082058 42.37342451 -9 42 C-6.99135641 39.6273026 -6.99135641 39.6273026 -6 37 C-6.928125 36.6596875 -6.928125 36.6596875 -7.875 36.3125 C-10.6219805 34.61583557 -10.86635273 32.94748289 -12 30 C-12.99 29.67 -13.98 29.34 -15 29 C-15.845625 28.46375 -16.69125 27.9275 -17.5625 27.375 C-18.366875 26.92125 -19.17125 26.4675 -20 26 C-20.66 26.33 -21.32 26.66 -22 27 C-22 26.01 -22 25.02 -22 24 C-22.86625 23.690625 -22.86625 23.690625 -23.75 23.375 C-27.07045493 21.3458331 -28.30451556 19.51656033 -30 16 C-30.29678003 10.46592535 -29.72858629 6.23447488 -26 2 C-24.1875 0.875 -24.1875 0.875 -22 0 C-21.0925 -0.37125 -20.185 -0.7425 -19.25 -1.125 C-12.36798748 -2.97784952 -6.6911761 -1.9117646 0 0 Z M1 25 C0.67 25.66 0.34 26.32 0 27 C0.66 27 1.32 27 2 27 C1.67 26.34 1.34 25.68 1 25 Z M-8 32 C-7.34 32.66 -6.68 33.32 -6 34 C-6 33.34 -6 32.68 -6 32 C-6.66 32 -7.32 32 -8 32 Z " fill="#868789" transform="translate(302,338)"/>
<path d="M0 0 C1.82917969 0.30164063 1.82917969 0.30164063 3.6953125 0.609375 C6.875 1.25 6.875 1.25 9.875 2.25 C9.875 2.91 9.875 3.57 9.875 4.25 C10.803125 4.5903125 10.803125 4.5903125 11.75 4.9375 C14.48910209 6.62929835 14.92524472 8.24244161 15.875 11.25 C16.535 11.25 17.195 11.25 17.875 11.25 C19.17562431 15.06516464 18.76869853 18.52561763 18.4375 22.5 C18.33566406 23.76328125 18.23382813 25.0265625 18.12890625 26.328125 C18.04511719 27.29234375 17.96132813 28.2565625 17.875 29.25 C17.215 29.25 16.555 29.25 15.875 29.25 C15.215 30.9 14.555 32.55 13.875 34.25 C13.215 34.25 12.555 34.25 11.875 34.25 C11.875 35.24 11.875 36.23 11.875 37.25 C8.905 37.745 8.905 37.745 5.875 38.25 C5.875 38.91 5.875 39.57 5.875 40.25 C-1.89304709 41.48302335 -9.19687485 41.47025087 -16.125 37.25 C-18.14828268 34.60224736 -20.125 31.64952923 -20.125 28.25 C-20.785 27.92 -21.445 27.59 -22.125 27.25 C-22.455 26.26 -22.785 25.27 -23.125 24.25 C-23.785 23.92 -24.445 23.59 -25.125 23.25 C-24.465 22.59 -23.805 21.93 -23.125 21.25 C-22.554308 18.98900405 -22.554308 18.98900405 -22.1875 16.4375 C-21.45712702 12.44632798 -20.54508157 9.57761215 -18.125 6.25 C-17.465 5.26 -16.805 4.27 -16.125 3.25 C-14.80011887 2.88451555 -13.46481486 2.5562434 -12.125 2.25 C-11.04025391 1.46882813 -11.04025391 1.46882813 -9.93359375 0.671875 C-6.21787963 -1.20923757 -4.06357513 -0.70745894 0 0 Z M-12 11.875 C-14.34792531 16.83173121 -14.72431962 21.51512742 -12.9375 26.6875 C-11.05762583 29.34525313 -10.11970903 30.1610149 -7.125 31.25 C-6.5475 31.6625 -5.97 32.075 -5.375 32.5 C-1.74217746 33.71094085 1.39689605 32.66409565 4.875 31.25 C7.21099905 29.33328283 8.53447294 27.93105411 9.875 25.25 C10.28969181 20.74421399 10.35990344 16.59061539 8.8125 12.3125 C6.16760785 9.49696964 3.50337423 8.48105554 -0.125 7.25 C-4.70277001 7.25 -8.53390841 8.87105396 -12 11.875 Z " fill="#878889" transform="translate(332.125,348.75)"/>
<path d="M0 0 C0 0.66 0 1.32 0 2 C1.051875 2.0309375 1.051875 2.0309375 2.125 2.0625 C6.52621976 3.49768036 8.65332861 6.07100161 11 10 C13.79552566 17.13543262 14.67285647 22.78328754 12 30 C9.91503476 34.16993048 7.39554175 37.31935168 3 39 C2.05125 39.37125 1.1025 39.7425 0.125 40.125 C-3.07297887 41.02043408 -5.69773215 41.15725085 -9 41 C-9.33 41.66 -9.66 42.32 -10 43 C-10 42.34 -10 41.68 -10 41 C-11.03125 40.938125 -12.0625 40.87625 -13.125 40.8125 C-19.16068243 39.54695368 -21.83372022 36.60757484 -25.3125 31.8125 C-27.95223629 26.67782309 -28.84754456 21.14588598 -27.3359375 15.53515625 C-24.9069634 9.60095531 -21.67602093 5.66507969 -16.1875 2.25 C-10.92407559 0.18591199 -5.64760816 -0.17648775 0 0 Z M-16.3125 11.9375 C-19.74011449 16.12680659 -19.45371036 20.84585028 -19 26 C-18.33333333 29 -18.33333333 29 -16 31 C-12.13014102 32.90025333 -8.23920331 34.33234929 -3.89453125 33.6875 C-0.96242296 32.58717791 0.88432009 31.1388159 2.875 28.75 C4.89859945 23.80342357 5.44464601 20.40414531 3.8125 15.25 C2.04657354 12.08351118 1.17679093 10.63377819 -2 9 C-7.64682692 7.40415761 -11.7843358 8.1436327 -16.3125 11.9375 Z " fill="#878889" transform="translate(489,348)"/>
<path d="M0 0 C0.33 0.99 0.66 1.98 1 3 C4.465 2.505 4.465 2.505 8 2 C8.33 3.32 8.66 4.64 9 6 C9.49628906 5.71125 9.99257813 5.4225 10.50390625 5.125 C15.22681138 2.54398164 18.49998608 1.56862636 24 2 C24.99 2 25.98 2 27 2 C29.6875 3.875 29.6875 3.875 32 6 C32 6.66 32 7.32 32 8 C32.66 8 33.32 8 34 8 C34.80395025 12.22282518 35.11811363 16.19613764 35.09765625 20.4921875 C35.09443359 21.69101562 35.09121094 22.88984375 35.08789062 24.125 C35.07532227 25.98125 35.07532227 25.98125 35.0625 27.875 C35.05798828 29.13570313 35.05347656 30.39640625 35.04882812 31.6953125 C35.0370796 34.79692386 35.02065167 37.89843725 35 41 C32.13822943 42.43088528 30.06624227 41.59991697 27 41 C26.97494385 40.26362305 26.9498877 39.52724609 26.92407227 38.76855469 C26.80795727 35.42886622 26.68530082 32.08944903 26.5625 28.75 C26.52318359 27.59113281 26.48386719 26.43226563 26.44335938 25.23828125 C26.40146484 24.12324219 26.35957031 23.00820313 26.31640625 21.859375 C26.27974854 20.83295898 26.24309082 19.80654297 26.20532227 18.74902344 C26.02547669 16.34110282 25.81048555 14.27158273 25 12 C22.70370006 10.85185003 20.92301914 10.69230191 18.375 10.4375 C17.55773437 10.35371094 16.74046875 10.26992188 15.8984375 10.18359375 C15.27195312 10.12300781 14.64546875 10.06242187 14 10 C13.67 10.66 13.34 11.32 13 12 C12.32743164 12.58040039 11.65486328 13.16080078 10.96191406 13.75878906 C8.44543438 16.63351324 8.53237807 18.0865253 8.609375 21.859375 C8.62226562 22.97441406 8.63515625 24.08945312 8.6484375 25.23828125 C8.69871094 26.97658203 8.69871094 26.97658203 8.75 28.75 C8.77707031 30.51150391 8.77707031 30.51150391 8.8046875 32.30859375 C8.8518088 35.2065534 8.91758695 38.10286418 9 41 C5.6875 41.6875 5.6875 41.6875 2 42 C0.28507996 40.76457214 0.28507996 40.76457214 -1 39 C-1.19167337 35.9793105 -1.2084136 33.18455677 -1.07421875 30.17578125 C-1.04777786 29.31438034 -1.02133698 28.45297943 -0.99409485 27.56547546 C-0.90631244 24.81378004 -0.79717129 22.06340156 -0.6875 19.3125 C-0.62424315 17.44731284 -0.56237703 15.58207796 -0.50195312 13.71679688 C-0.35076858 9.14382108 -0.18042447 4.57191174 0 0 Z " fill="#878889" transform="translate(509,347)"/>
<path d="M0 0 C0.68384766 0.15210938 1.36769531 0.30421875 2.07226562 0.4609375 C3.73910959 0.83393755 5.40136334 1.22735339 7.0625 1.625 C6.7325 4.595 6.4025 7.565 6.0625 10.625 C3.0925 9.635 0.1225 8.645 -2.9375 7.625 C-2.6075 8.615 -2.2775 9.605 -1.9375 10.625 C-2.2675 11.285 -2.5975 11.945 -2.9375 12.625 C-3.9275 12.625 -4.9175 12.625 -5.9375 12.625 C-6.2675 11.635 -6.5975 10.645 -6.9375 9.625 C-8.2575 9.625 -9.5775 9.625 -10.9375 9.625 C-10.9375 10.615 -10.9375 11.605 -10.9375 12.625 C-9.82375 12.7796875 -9.82375 12.7796875 -8.6875 12.9375 C-5.9375 13.625 -5.9375 13.625 -3.875 15.1875 C-1.80419005 17.02223128 -1.80419005 17.02223128 2.0625 16.625 C2.0625 17.615 2.0625 18.605 2.0625 19.625 C2.68125 19.91375 3.3 20.2025 3.9375 20.5 C6.0625 21.625 6.0625 21.625 8.0625 23.625 C8.39953885 28.09076473 8.34619857 31.71008816 6.0625 35.625 C3.13326189 37.80315142 1.73968093 38.625 -1.9375 38.625 C-2.2675 39.285 -2.5975 39.945 -2.9375 40.625 C-4.05125 40.604375 -5.165 40.58375 -6.3125 40.5625 C-9.76965921 40.36119282 -9.76965921 40.36119282 -11.9375 41.625 C-12.2675 40.965 -12.5975 40.305 -12.9375 39.625 C-15.25906597 39.21770772 -17.5943787 38.88061323 -19.9375 38.625 C-21.77441257 34.84312119 -22.09587626 32.67931692 -20.9375 28.625 C-20.34582031 28.75777344 -19.75414062 28.89054687 -19.14453125 29.02734375 C-17.51509822 29.39150741 -15.88485201 29.75204729 -14.25390625 30.109375 C-12.55960758 30.48652074 -10.87144129 30.89151468 -9.1875 31.3125 C-6.54956589 31.67887974 -4.50227211 31.28451283 -1.9375 30.625 C-2.2675 29.965 -2.5975 29.305 -2.9375 28.625 C-2.2775 28.295 -1.6175 27.965 -0.9375 27.625 C-1.9275 26.965 -2.9175 26.305 -3.9375 25.625 C-3.9375 24.965 -3.9375 24.305 -3.9375 23.625 C-4.9275 23.955 -5.9175 24.285 -6.9375 24.625 C-6.9375 23.965 -6.9375 23.305 -6.9375 22.625 C-8.5875 22.625 -10.2375 22.625 -11.9375 22.625 C-11.9375 21.965 -11.9375 21.305 -11.9375 20.625 C-13.5875 20.625 -15.2375 20.625 -16.9375 20.625 C-19.9719732 15.69398106 -21.03778876 11.30458579 -19.9375 5.625 C-14.90749432 -1.53894748 -7.96115594 -1.93755316 0 0 Z " fill="#858789" transform="translate(571.9375,349.375)"/>
<path d="M0 0 C0.66 0.33 1.32 0.66 2 1 C2.01458252 1.80219971 2.02916504 2.60439941 2.04418945 3.4309082 C2.11856719 7.05859699 2.21526243 10.68535504 2.3125 14.3125 C2.33505859 15.57513672 2.35761719 16.83777344 2.38085938 18.13867188 C2.41630859 19.34716797 2.45175781 20.55566406 2.48828125 21.80078125 C2.51446533 22.91622314 2.54064941 24.03166504 2.56762695 25.1809082 C3.04225322 28.27549291 3.52356625 29.17332174 6 31 C9.96769422 32.98384711 14.85529486 32.32630565 19 31 C20.10214358 25.72176551 20.08199807 20.67107371 20 15.3125 C19.97447031 13.62115812 19.95344463 11.92974065 19.9375 10.23828125 C19.92589844 9.49618408 19.91429687 8.75408691 19.90234375 7.98950195 C20 6 20 6 21 3 C21.66 3 22.32 3 23 3 C23.33 2.34 23.66 1.68 24 1 C25.65 1 27.3 1 29 1 C29 11.56 29 22.12 29 33 C28.01 33.33 27.02 33.66 26 34 C26 34.66 26 35.32 26 36 C23.35261084 37.4606285 22.10551666 38 19 38 C18.67 38.66 18.34 39.32 18 40 C9.40843534 42.00631642 3.65838885 39.91824546 -4 36 C-4.33 36 -4.66 36 -5 36 C-5 33.69 -5 31.38 -5 29 C-5.66 28.67 -6.32 28.34 -7 28 C-6.67 19.75 -6.34 11.5 -6 3 C-4.02 2.01 -2.04 1.02 0 0 Z " fill="#878888" transform="translate(382,349)"/>
<path d="M0 0 C0.99 0 1.98 0 3 0 C3 0.66 3 1.32 3 2 C4.7015625 1.9690625 4.7015625 1.9690625 6.4375 1.9375 C10 2 10 2 11 3 C11.08861992 5.8116338 11.11522355 8.59858255 11.09765625 11.41015625 C11.0962413 12.25219101 11.09482635 13.09422577 11.09336853 13.96177673 C11.08775263 16.66205335 11.07519748 19.36224828 11.0625 22.0625 C11.05748705 23.88867068 11.05292379 25.71484266 11.04882812 27.54101562 C11.03777804 32.02737542 11.02050279 36.51367384 11 41 C9.56274129 41.16873478 8.12518162 41.33490737 6.6875 41.5 C5.88699219 41.5928125 5.08648438 41.685625 4.26171875 41.78125 C-0.51374819 42.2431259 -0.51374819 42.2431259 -3 41 C-3 28.46 -3 15.92 -3 3 C-2.01 3 -1.02 3 0 3 C0 2.01 0 1.02 0 0 Z " fill="#4C51A3" transform="translate(516,289)"/>
<path d="M0 0 C2.97 0 5.94 0 9 0 C9 0.66 9 1.32 9 2 C9.66 2.33 10.32 2.66 11 3 C10.34 3 9.68 3 9 3 C9.01474869 3.54679413 9.02949738 4.09358826 9.04469299 4.6569519 C9.19680067 10.3341396 9.34162847 16.01147948 9.48217773 21.68896484 C9.53563685 23.80945577 9.59096917 25.92990031 9.64819336 28.05029297 C9.72999523 31.09332272 9.80511898 34.1364542 9.87890625 37.1796875 C9.90594131 38.13181122 9.93297638 39.08393494 9.96083069 40.06491089 C9.98092697 40.94567291 10.00102325 41.82643494 10.02172852 42.73388672 C10.04171402 43.51110077 10.06169952 44.28831482 10.08229065 45.08908081 C10 47 10 47 9 49 C11.97 48.505 11.97 48.505 15 48 C15.66 49.98 16.32 51.96 17 54 C15.68 54.66 14.36 55.32 13 56 C13 56.66 13 57.32 13 58 C11.02 58 9.04 58 7 58 C7 57.34 7 56.68 7 56 C6.38125 55.95875 5.7625 55.9175 5.125 55.875 C3 55 3 55 1.89306641 52.65185547 C0.66915086 47.64711825 0.64293292 42.83101251 0.5859375 37.6953125 C0.56657135 36.61619598 0.5472052 35.53707947 0.5272522 34.42526245 C0.46766058 30.99192105 0.42115239 27.55854576 0.375 24.125 C0.33680147 21.79165236 0.29774865 19.45831854 0.2578125 17.125 C0.16197566 11.41677941 0.07786898 5.70849283 0 0 Z " fill="#878889" transform="translate(356,332)"/>
<path d="M0 0 C0.99 0.66 1.98 1.32 3 2 C3.29296875 4.3828125 3.29296875 4.3828125 3.1875 7.125 C3.16042969 8.03507812 3.13335937 8.94515625 3.10546875 9.8828125 C3.07066406 10.58148438 3.03585937 11.28015625 3 12 C5.64 12.99 8.28 13.98 11 15 C11 16.98 11 18.96 11 21 C7.04 21.495 7.04 21.495 3 22 C2.67 31.9 2.34 41.8 2 52 C-1.465 52.495 -1.465 52.495 -5 53 C-6.62607636 51.37392364 -6.16590931 49.54316935 -6.20532227 47.29663086 C-6.22526749 46.29566879 -6.24521271 45.29470673 -6.26576233 44.26341248 C-6.28247482 43.1748848 -6.29918732 42.08635712 -6.31640625 40.96484375 C-6.33718735 39.85645645 -6.35796844 38.74806915 -6.37937927 37.60609436 C-6.44499623 34.04996192 -6.50381596 30.49375297 -6.5625 26.9375 C-6.60567368 24.53319507 -6.64928758 22.12889801 -6.69335938 19.72460938 C-6.80068992 13.81648815 -6.90243331 7.90829009 -7 2 C-6.030625 1.855625 -5.06125 1.71125 -4.0625 1.5625 C-1.13513227 1.32437659 -1.13513227 1.32437659 0 0 Z " fill="#878888" transform="translate(428,336)"/>
<path d="M0 0 C0.99 0.66 1.98 1.32 3 2 C3.19506644 5.05712568 3.20588431 7.89796207 3.07421875 10.9453125 C3.04777786 11.8303244 3.02133698 12.7153363 2.99409485 13.62716675 C2.90615715 16.46045082 2.79707022 19.2924779 2.6875 22.125 C2.62425932 24.04292337 2.56239267 25.96089257 2.50195312 27.87890625 C2.35058836 32.58661795 2.18024952 37.2933093 2 42 C-0.86177057 43.43088528 -2.93375773 42.59991697 -6 42 C-6.19209289 36.62519527 -6.37084171 31.25017745 -6.53710938 25.87451172 C-6.59559255 24.04496291 -6.65775332 22.21552788 -6.72363281 20.38623047 C-6.81756847 17.76030185 -6.89837127 15.13425114 -6.9765625 12.5078125 C-7.00875885 11.68693146 -7.0409552 10.86605042 -7.0741272 10.02029419 C-7.12733115 8.0140827 -7.07301195 6.00558831 -7 4 C-4.73038808 1.73038808 -3.06630664 0.8974556 0 0 Z " fill="#888888" transform="translate(453,346)"/>
<path d="M0 0 C2 1 2 1 5 3 C5.66 3.33 6.32 3.66 7 4 C7.33 3.34 7.66 2.68 8 2 C8 3.32 8 4.64 8 6 C4.62182575 6.84454356 2.32534757 7.10844919 -1 6 C-1 7.32 -1 8.64 -1 10 C-0.21625 10.0825 0.5675 10.165 1.375 10.25 C4 11 4 11 5.3125 13.0625 C5.539375 13.701875 5.76625 14.34125 6 15 C6.99 14.67 7.98 14.34 9 14 C8.67 13.01 8.34 12.02 8 11 C10.15194974 7.17431158 12.20458716 4.2376434 16 2 C19.015625 1.70703125 19.015625 1.70703125 22.25 1.8125 C23.86648438 1.85310547 23.86648438 1.85310547 25.515625 1.89453125 C26.33546875 1.92933594 27.1553125 1.96414063 28 2 C27.71576172 3.14662109 27.71576172 3.14662109 27.42578125 4.31640625 C26.74752319 7.10169964 26.74752319 7.10169964 28.1875 9.9375 C29 13 29 13 27.5625 16.1875 C24.54168591 19.50302765 22.31000229 20.79017479 18 22 C15.125 21.3125 15.125 21.3125 13 20 C12.67 19.34 12.34 18.68 12 18 C9.6272914 17.07533247 9.6272914 17.07533247 7 17 C5.43750191 18.31201173 5.43750191 18.31201173 4 20 C1.3125 21.1875 1.3125 21.1875 -1 22 C-1 21.34 -1 20.68 -1 20 C-1.99 20.33 -2.98 20.66 -4 21 C-4.66 19.68 -5.32 18.36 -6 17 C-5.34 16.34 -4.68 15.68 -4 15 C-3.34 15.33 -2.68 15.66 -2 16 C-2 16.66 -2 17.32 -2 18 C-0.68 17.34 0.64 16.68 2 16 C2 15.34 2 14.68 2 14 C1.43410156 13.74605469 0.86820312 13.49210937 0.28515625 13.23046875 C-0.81505859 12.71419922 -0.81505859 12.71419922 -1.9375 12.1875 C-2.66839844 11.85105469 -3.39929688 11.51460938 -4.15234375 11.16796875 C-6 10 -6 10 -7 7 C-6.34 7 -5.68 7 -5 7 C-4.731875 6.401875 -4.46375 5.80375 -4.1875 5.1875 C-3.01506533 3.02775192 -1.80630718 1.64209744 0 0 Z M14.625 6.5 C12.6621204 9.0097563 12.6621204 9.0097563 13.0625 12.625 C13.6750845 16.25516924 13.6750845 16.25516924 17 18 C20.07665027 17.91778291 20.07665027 17.91778291 23 17 C25.15502531 13.76746204 25.46856135 12.74849077 25 9 C23.42537756 6.67950377 22.18253113 6.07020428 19.5625 5.0625 C16.89316986 4.76045726 16.89316986 4.76045726 14.625 6.5 Z " fill="#059CE4" transform="translate(413,396)"/>
<path d="M0 0 C0.7951427 3.00501983 0.98674855 5.89916135 1 9 C-1.37230651 10.61316843 -3.35868125 11.96044483 -6 13 C-9.72800985 12.28307503 -11.84266549 11.10488967 -15 9 C-15.77657935 2.12172573 -15.77657935 2.12172573 -13.3125 -1.4375 C-7.97992081 -5.04059405 -4.70462001 -4.49077365 0 0 Z " fill="#892A7A" transform="translate(527,276)"/>
<path d="M0 0 C4.37491278 2.51152401 5.85089702 4.04266616 7.1875 8.875 C7.39007363 12.18370258 6.84263071 14.00223857 5.375 16.9375 C3.065 17.2675 0.755 17.5975 -1.625 17.9375 C-1.295 19.2575 -0.965 20.5775 -0.625 21.9375 C-3.625 20.9375 -3.625 20.9375 -5.625 18.9375 C-5.955 18.2775 -6.285 17.6175 -6.625 16.9375 C-8.60388961 16.21056096 -10.60454558 15.53933749 -12.625 14.9375 C-12.625 11.9675 -12.625 8.9975 -12.625 5.9375 C-11.965 5.9375 -11.305 5.9375 -10.625 5.9375 C-10.398125 5.339375 -10.17125 4.74125 -9.9375 4.125 C-7.27911722 -0.30563796 -4.99062456 -1.46276927 0 0 Z M-4.625 2.9375 C-6.81538423 4.30918238 -6.81538423 4.30918238 -8.625 5.9375 C-8.295 8.5775 -7.965 11.2175 -7.625 13.9375 C-4.36342267 15.02469244 -2.04089896 15.22821481 1.375 14.9375 C3.66513653 11.5022952 3.55342973 9.952169 3.375 5.9375 C0.72271188 4.86224806 -1.90868454 3.84293849 -4.625 2.9375 Z " fill="#049DE5" transform="translate(511.625,398.0625)"/>
<path d="M0 0 C-2.05233685 2.2477975 -3.00667261 3.0022242 -6 4 C-6.33 4.66 -6.66 5.32 -7 6 C-6.4225 5.814375 -5.845 5.62875 -5.25 5.4375 C-2.79307475 4.95976454 -1.35602466 5.24270636 1 6 C1 6.66 1 7.32 1 8 C0.34 8 -0.32 8 -1 8 C-1.66 9.32 -2.32 10.64 -3 12 C-2.01 12.99 -1.02 13.98 0 15 C-1.72584734 16.72584734 -3.96209367 16.2533507 -6.3125 16.3125 C-11.60780109 16.29186896 -11.60780109 16.29186896 -14.6875 14 C-15.120625 13.34 -15.55375 12.68 -16 12 C-15.01 11.67 -14.02 11.34 -13 11 C-12.67 7.04 -12.34 3.08 -12 -1 C-3.375 -2.25 -3.375 -2.25 0 0 Z M-9 4 C-8 6 -8 6 -8 6 Z M-9 11 C-9 11.66 -9 12.32 -9 13 C-7.68 13 -6.36 13 -5 13 C-5.33 12.01 -5.66 11.02 -6 10 C-7.2236068 9.9254644 -7.2236068 9.9254644 -9 11 Z " fill="#099AE2" transform="translate(364,400)"/>
<path d="M0 0 C2.125 0 2.125 0 5 1 C7.25484692 3.49775783 9.14265083 6.19801963 11 9 C11.33 6.03 11.66 3.06 12 0 C13.32 0 14.64 0 16 0 C15.67 5.61 15.34 11.22 15 17 C13.68 17 12.36 17 11 17 C8 12.92857143 8 12.92857143 8 10 C4.77595022 11.66954819 4.77595022 11.66954819 4.3125 14.625 C4.209375 15.40875 4.10625 16.1925 4 17 C2.0625 16.6875 2.0625 16.6875 0 16 C-0.33 15.01 -0.66 14.02 -1 13 C-0.34 13 0.32 13 1 13 C0.9278125 12.38511719 0.855625 11.77023437 0.78125 11.13671875 C0.6884375 10.32847656 0.595625 9.52023437 0.5 8.6875 C0.4071875 7.88699219 0.314375 7.08648437 0.21875 6.26171875 C0.01558307 4.16111782 0 2.10998086 0 0 Z M4 6 C4.33 6.99 4.66 7.98 5 9 C5 8.01 5 7.02 5 6 C4.67 6 4.34 6 4 6 Z " fill="#039EE7" transform="translate(331,399)"/>
<path d="M0 0 C0.66 0 1.32 0 2 0 C2.83288874 6.25307239 3.03863773 11.76817361 2 18 C-0.375 17.75 -0.375 17.75 -3 17 C-4.1875 15.25 -4.1875 15.25 -5 13 C-5.37125 12.0925 -5.7425 11.185 -6.125 10.25 C-6.41375 9.5075 -6.7025 8.765 -7 8 C-7.66 9.98 -8.32 11.96 -9 14 C-8.34 14.33 -7.68 14.66 -7 15 C-7.99 16.485 -7.99 16.485 -9 18 C-9.99 18 -10.98 18 -12 18 C-12.33 12.39 -12.66 6.78 -13 1 C-8 2 -8 2 -5.6875 4.4375 C-4 7 -4 7 -4 9 C-3.34 9 -2.68 9 -2 9 C-1.855625 7.700625 -1.71125 6.40125 -1.5625 5.0625 C-1.125 1.125 -1.125 1.125 0 0 Z " fill="#029EE7" transform="translate(535,398)"/>
<path d="M0 0 C3.3 0 6.6 0 10 0 C11 6.625 11 6.625 11 10 C11.99 10.33 12.98 10.66 14 11 C13.34 11 12.68 11 12 11 C11.855625 11.804375 11.71125 12.60875 11.5625 13.4375 C11 16 11 16 10 17 C8.31391034 17.07205511 6.62499341 17.08386068 4.9375 17.0625 C4.01839844 17.05347656 3.09929687 17.04445313 2.15234375 17.03515625 C1.44207031 17.02355469 0.73179687 17.01195312 0 17 C-1.33257403 5.47835991 -1.33257403 5.47835991 0 0 Z M3 2 C3 3.65 3 5.3 3 7 C4.65 7 6.3 7 8 7 C7.67 5.68 7.34 4.36 7 3 C5.68 2.67 4.36 2.34 3 2 Z M3 10 C3 11.65 3 13.3 3 15 C4.98 14.67 6.96 14.34 9 14 C8.67 12.68 8.34 11.36 8 10 C6.35 10 4.7 10 3 10 Z " fill="#019EE7" transform="translate(273,399)"/>
<path d="M0 0 C2.99529289 0.99843096 4.15840327 1.51384442 6 4 C5.875 6.125 5.875 6.125 5 8 C4.01 8.33 3.02 8.66 2 9 C1.67 8.34 1.34 7.68 1 7 C0.01 7 -0.98 7 -2 7 C-1.67 8.32 -1.34 9.64 -1 11 C0.1446875 11.1546875 0.1446875 11.1546875 1.3125 11.3125 C4.17059424 12.04364039 5.15742885 12.76951913 7 15 C6.1875 17.9375 6.1875 17.9375 5 21 C4.01 21.33 3.02 21.66 2 22 C1.67 22.66 1.34 23.32 1 24 C0.34 24 -0.32 24 -1 24 C-1.33 23.34 -1.66 22.68 -2 22 C-2.99 21.67 -3.98 21.34 -5 21 C-5 19.68 -5 18.36 -5 17 C-4.34 17 -3.68 17 -3 17 C-3.33 16.113125 -3.66 15.22625 -4 14.3125 C-4.92961974 11.2331346 -5.42804911 9.1675634 -5 6 C-3.4491508 4.02619193 -2.24244261 3.1212213 0 2 C0 1.34 0 0.68 0 0 Z M-2 13 C-1.67 14.98 -1.34 16.96 -1 19 C0.32 18.67 1.64 18.34 3 18 C2.67 16.68 2.34 15.36 2 14 C0.68 13.67 -0.64 13.34 -2 13 Z " fill="#069BE3" transform="translate(372,395)"/>
<path d="M0 0 C0 0.66 0 1.32 0 2 C-0.66 2 -1.32 2 -2 2 C-1.91621094 2.68707031 -1.83242188 3.37414062 -1.74609375 4.08203125 C-1.64425781 4.98308594 -1.54242188 5.88414062 -1.4375 6.8125 C-1.33308594 7.70582031 -1.22867187 8.59914063 -1.12109375 9.51953125 C-1 12 -1 12 -2 15 C-0.02 15 1.96 15 4 15 C4.05389087 13.04196493 4.09274217 11.08351091 4.125 9.125 C4.14820313 8.03445313 4.17140625 6.94390625 4.1953125 5.8203125 C4.30060534 2.8628949 4.30060534 2.8628949 2 1 C5 0 5 0 8 1 C8.13501894 3.43934225 8.23403897 5.87124104 8.3125 8.3125 C8.3753418 9.34793945 8.3753418 9.34793945 8.43945312 10.40429688 C8.48828125 12.42578125 8.48828125 12.42578125 8 16 C5.71875 18 5.71875 18 3 19 C-0.8125 18.6875 -0.8125 18.6875 -4 18 C-5.2982126 12.23918159 -6.25706972 6.91260345 -6 1 C-4 0 -4 0 0 0 Z " fill="#059CE5" transform="translate(464,398)"/>
<path d="M0 0 C2 2 2 2 2 5 C-0.31 4.67 -2.62 4.34 -5 4 C-4.67 4.99 -4.34 5.98 -4 7 C-3.01 7.45375 -2.02 7.9075 -1 8.375 C2 10 2 10 3.0625 12.4375 C2.98515982 15.60844747 2.22017326 16.77982674 0 19 C-0.66 19 -1.32 19 -2 19 C-1.67 20.32 -1.34 21.64 -1 23 C-1.66 23.33 -2.32 23.66 -3 24 C-3 23.01 -3 22.02 -3 21 C-3.66 21 -4.32 21 -5 21 C-5 20.01 -5 19.02 -5 18 C-6.32 18 -7.64 18 -9 18 C-9.33 16.68 -9.66 15.36 -10 14 C-7.36 14.33 -4.72 14.66 -2 15 C-2.73976471 11.7074288 -2.73976471 11.7074288 -6.0625 10.125 C-9 8 -9 8 -9.625 5.4375 C-9 3 -9 3 -7.3125 1.1875 C-4.60710524 -0.20175677 -3.00198512 -0.39499804 0 0 Z " fill="#059CE4" transform="translate(391,398)"/>
<path d="M0 0 C2.64 0 5.28 0 8 0 C8.33 1.65 8.66 3.3 9 5 C6.69 4.67 4.38 4.34 2 4 C2.33 4.99 2.66 5.98 3 7 C4.2375 7.495 4.2375 7.495 5.5 8 C6.325 8.33 7.15 8.66 8 9 C8.33 9.99 8.66 10.98 9 12 C9.66 12 10.32 12 11 12 C9.70989008 14.87793751 8.42638194 16.96183917 6 19 C5.01 19.33 4.02 19.66 3 20 C-0.1875 18.0625 -0.1875 18.0625 -3 16 C-2.67 15.34 -2.34 14.68 -2 14 C0.97 14.495 0.97 14.495 4 15 C4.33 14.01 4.66 13.02 5 12 C0.545 10.02 0.545 10.02 -4 8 C-2.68 5.36 -1.36 2.72 0 0 Z " fill="#039DE6" transform="translate(544,398)"/>
<path d="M0 0 C0.66 0.33 1.32 0.66 2 1 C2.4140625 3.94140625 2.4140625 3.94140625 2.625 7.5625 C2.69976562 8.76003906 2.77453125 9.95757812 2.8515625 11.19140625 C2.90054687 12.11824219 2.94953125 13.04507812 3 14 C3.99 14.33 4.98 14.66 6 15 C6.33 14.34 6.66 13.68 7 13 C7.66 13 8.32 13 9 13 C9 9.04 9 5.08 9 1 C9.99 1 10.98 1 12 1 C12.08160748 2.89510699 12.13946459 4.79124504 12.1875 6.6875 C12.22230469 7.74324219 12.25710938 8.79898437 12.29296875 9.88671875 C11.96208284 13.40293299 11.09693669 15.18910629 9 18 C6.5625 19.5 6.5625 19.5 4 20 C1.6875 18.625 1.6875 18.625 0 17 C-0.66 17.33 -1.32 17.66 -2 18 C-2.33 17.01 -2.66 16.02 -3 15 C-2.67 14.34 -2.34 13.68 -2 13 C-1.96944808 10.17176509 -2.06717294 7.35794268 -2.16015625 4.53125 C-2 2 -2 2 0 0 Z " fill="#039EE6" transform="translate(291,398)"/>
<path d="M0 0 C3.625 0.375 3.625 0.375 7 1 C7 2.32 7 3.64 7 5 C4.03 4.505 4.03 4.505 1 4 C0.67 4.99 0.34 5.98 0 7 C1.093125 7.020625 2.18625 7.04125 3.3125 7.0625 C7 8 7 8 8.1328125 9.625 C8.9375 11.5625 8.9375 11.5625 10 15 C7.875 17.0625 7.875 17.0625 5 19 C1.91324488 18.81842617 -0.24364365 18.37817818 -3 17 C-2.67 16.01 -2.34 15.02 -2 14 C0.64 14.33 3.28 14.66 6 15 C6 14.01 6 13.02 6 12 C4.906875 11.731875 3.81375 11.46375 2.6875 11.1875 C-0.61692663 10.12336261 -1.94960422 9.65345336 -4 7 C-2.92598892 4.08482708 -2.22189824 2.22189824 0 0 Z " fill="#019EE7" transform="translate(310,398)"/>
<path d="M0 0 C1.27617187 0.02320313 2.55234375 0.04640625 3.8671875 0.0703125 C5.78917969 0.09738281 5.78917969 0.09738281 7.75 0.125 C9.23113281 0.15980469 9.23113281 0.15980469 10.7421875 0.1953125 C11.0721875 0.8553125 11.4021875 1.5153125 11.7421875 2.1953125 C11.4121875 3.1853125 11.0821875 4.1753125 10.7421875 5.1953125 C9.0921875 4.8653125 7.4421875 4.5353125 5.7421875 4.1953125 C5.7421875 8.8153125 5.7421875 13.4353125 5.7421875 18.1953125 C4.7521875 18.1953125 3.7621875 18.1953125 2.7421875 18.1953125 C2.4121875 13.9053125 2.0821875 9.6153125 1.7421875 5.1953125 C0.0921875 4.8653125 -1.5578125 4.5353125 -3.2578125 4.1953125 C-3.9178125 3.5353125 -4.5778125 2.8753125 -5.2578125 2.1953125 C-3.2578125 0.1953125 -3.2578125 0.1953125 0 0 Z " fill="#039DE7" transform="translate(478.2578125,397.8046875)"/>
<path d="M0 0 C0.99 0 1.98 0 3 0 C3.33 4.29 3.66 8.58 4 13 C6.97 13.495 6.97 13.495 10 14 C10.99 15.485 10.99 15.485 12 17 C8.04 17 4.08 17 0 17 C-0.19493195 14.72979256 -0.38070418 12.45879711 -0.5625 10.1875 C-0.66691406 8.92292969 -0.77132813 7.65835937 -0.87890625 6.35546875 C-1 3 -1 3 0 0 Z " fill="#029EE7" transform="translate(445,399)"/>
<path d="M0 0 C2.4375 0.75 2.4375 0.75 4.4375 1.75 C4.1075 4.06 3.7775 6.37 3.4375 8.75 C2.7775 8.75 2.1175 8.75 1.4375 8.75 C1.1075 9.41 0.7775 10.07 0.4375 10.75 C-1.2125 10.42 -2.8625 10.09 -4.5625 9.75 C-5.89328101 3.33805513 -5.89328101 3.33805513 -4.4375 0.75 C-2.5625 -0.25 -2.5625 -0.25 0 0 Z " fill="#878788" transform="translate(451.5625,335.25)"/>
<path d="M0 0 C0.33 0.66 0.66 1.32 1 2 C1.66 2 2.32 2 3 2 C3 2.66 3 3.32 3 4 C2.34 4 1.68 4 1 4 C1.185625 5.19625 1.37125 6.3925 1.5625 7.625 C2.0311197 11.28283707 1.81481013 14.37862166 1 18 C0.01 18 -0.98 18 -2 18 C-2.24878997 15.56305726 -2.47463404 13.12761611 -2.6875 10.6875 C-2.79674805 9.65206055 -2.79674805 9.65206055 -2.90820312 8.59570312 C-3.33135078 3.44325817 -3.33135078 3.44325817 -1.51953125 1.01953125 C-1.01808594 0.68308594 -0.51664062 0.34664063 0 0 Z " fill="#069CE5" transform="translate(495,398)"/>
<path d="M0 0 C0.19620767 2.06168985 0.38160753 4.12440998 0.5625 6.1875 C0.66691406 7.33605469 0.77132813 8.48460937 0.87890625 9.66796875 C0.98859985 12.68631199 0.74002389 15.08923936 0 18 C-0.99 18 -1.98 18 -3 18 C-3 12.39 -3 6.78 -3 1 C-1 0 -1 0 0 0 Z " fill="#019FE8" transform="translate(326,398)"/>
<path d="M0 0 C2.03144641 0.93446535 4.03533587 1.93224776 6 3 C3.8125 5.5625 3.8125 5.5625 1 8 C-1.8125 7.8125 -1.8125 7.8125 -4 7 C-3.34 6.34 -2.68 5.68 -2 5 C-2 3.68 -2 2.36 -2 1 C-1.34 0.67 -0.68 0.34 0 0 Z " fill="#385DB0" transform="translate(476,315)"/>
<path d="M0 0 C2.26171875 -0.171875 2.26171875 -0.171875 4.6875 0.25 C5.49574219 0.37890625 6.30398438 0.5078125 7.13671875 0.640625 C8.05904297 0.81851562 8.05904297 0.81851562 9 1 C8.34 2.32 7.68 3.64 7 5 C3.7 4.67 0.4 4.34 -3 4 C-2.01 2.68 -1.02 1.36 0 0 Z " fill="#3A55A4" transform="translate(287,315)"/>
<path d="M0 0 C4.78478822 -0.09764874 9.27685687 0.22887459 14 1 C14 1.66 14 2.32 14 3 C9.38 3 4.76 3 0 3 C0 2.01 0 1.02 0 0 Z " fill="#0F77CA" transform="translate(428,327)"/>
<path d="M0 0 C2.97 0 5.94 0 9 0 C9 0.66 9 1.32 9 2 C7.35 2.66 5.7 3.32 4 4 C2.68 2.68 1.36 1.36 0 0 Z " fill="#517AAA" transform="translate(301,362)"/>
<path d="M0 0 C0.66 0.33 1.32 0.66 2 1 C2 1.66 2 2.32 2 3 C2.99 3.33 3.98 3.66 5 4 C4.01 4.495 4.01 4.495 3 5 C0.375 4.0625 0.375 4.0625 -2 3 C-2 2.34 -2 1.68 -2 1 C-1.34 0.67 -0.68 0.34 0 0 Z " fill="#4877B1" transform="translate(285,392)"/>
<path d="M0 0 C-0.3125 1.9375 -0.3125 1.9375 -1 4 C-1.99 4.33 -2.98 4.66 -4 5 C-4.66 3.68 -5.32 2.36 -6 1 C-3.92446352 0.4465236 -2.15634036 0 0 0 Z " fill="#4479B2" transform="translate(266,379)"/>
<path d="M0 0 C1.32 0.66 2.64 1.32 4 2 C4 2.66 4 3.32 4 4 C1.03 3.505 1.03 3.505 -2 3 C-1.34 2.67 -0.68 2.34 0 2 C0 1.34 0 0.68 0 0 Z " fill="#4C79AD" transform="translate(475,389)"/>
<path d="M0 0 C0.33 0 0.66 0 1 0 C1 1.65 1 3.3 1 5 C0.01 5 -0.98 5 -2 5 C-2.33 4.01 -2.66 3.02 -3 2 C-2.01 2 -1.02 2 0 2 C0 1.34 0 0.68 0 0 Z " fill="#4877B1" transform="translate(358,391)"/>
<path d="M0 0 C0.66 0.33 1.32 0.66 2 1 C2 1.99 2 2.98 2 4 C1.01 4 0.02 4 -1 4 C-0.67 2.68 -0.34 1.36 0 0 Z " fill="#3681BC" transform="translate(380,405)"/>
<path d="M0 0 C0.66 0.33 1.32 0.66 2 1 C2 1.99 2 2.98 2 4 C0.68 3.67 -0.64 3.34 -2 3 C-1.34 2.67 -0.68 2.34 0 2 C0 1.34 0 0.68 0 0 Z " fill="#4677B0" transform="translate(501,331)"/>
<path d="M0 0 C1.5 1.375 1.5 1.375 3 3 C3 3.66 3 4.32 3 5 C1.68 5 0.36 5 -1 5 C-0.67 3.35 -0.34 1.7 0 0 Z " fill="#4772AF" transform="translate(509,311)"/>
<path d="M0 0 C0.66 0.99 1.32 1.98 2 3 C0.35 3 -1.3 3 -3 3 C-2.01 2.01 -1.02 1.02 0 0 Z " fill="#4978B1" transform="translate(301,349)"/>
<path d="M0 0 C0.66 0 1.32 0 2 0 C2 0.66 2 1.32 2 2 C1.34 2 0.68 2 0 2 C-0.33 2.99 -0.66 3.98 -1 5 C-0.67 3.35 -0.34 1.7 0 0 Z " fill="#4778B0" transform="translate(508,391)"/>
<path d="M0 0 C0.99 0 1.98 0 3 0 C2.67 0.99 2.34 1.98 2 3 C1.34 3 0.68 3 0 3 C0 2.01 0 1.02 0 0 Z " fill="#4778B0" transform="translate(442,391)"/>
<path d="M0 0 C1.32 0 2.64 0 4 0 C3.67 0.99 3.34 1.98 3 3 C2.01 2.01 1.02 1.02 0 0 Z " fill="#4A78AE" transform="translate(579,352)"/>
<path d="M0 0 C0.33 1.32 0.66 2.64 1 4 C0.01 4.33 -0.98 4.66 -2 5 C-1 2 -1 2 0 0 Z " fill="#4477B2" transform="translate(541,330)"/>
<path d="M0 0 C0.99 0 1.98 0 3 0 C2.67 0.99 2.34 1.98 2 3 C1.34 2.67 0.68 2.34 0 2 C0 1.34 0 0.68 0 0 Z " fill="#4878B2" transform="translate(490,394)"/>
<path d="M0 0 C1.485 0.99 1.485 0.99 3 2 C2.01 2.66 1.02 3.32 0 4 C0 2.68 0 1.36 0 0 Z " fill="#4877B0" transform="translate(278,393)"/>
<path d="M0 0 C0.33 1.32 0.66 2.64 1 4 C0.34 4 -0.32 4 -1 4 C-0.67 2.68 -0.34 1.36 0 0 Z " fill="#4A79AE" transform="translate(364,390)"/>
<path d="M0 0 C0.66 0.33 1.32 0.66 2 1 C2 1.66 2 2.32 2 3 C1.01 3 0.02 3 -1 3 C-0.67 2.01 -0.34 1.02 0 0 Z " fill="#4777B1" transform="translate(302,390)"/>
<path d="M0 0 C0.66 0.33 1.32 0.66 2 1 C1.67 1.99 1.34 2.98 1 4 C0.34 3.01 -0.32 2.02 -1 1 C-0.67 0.67 -0.34 0.34 0 0 Z " fill="#4F79AB" transform="translate(465,384)"/>
<path d="M0 0 C0.66 0 1.32 0 2 0 C1.67 0.99 1.34 1.98 1 3 C0.34 3 -0.32 3 -1 3 C-0.67 2.01 -0.34 1.02 0 0 Z " fill="#4878B0" transform="translate(294,347)"/>
<path d="M0 0 C0.99 0.33 1.98 0.66 3 1 C1.35 1.33 -0.3 1.66 -2 2 C-1.34 1.34 -0.68 0.68 0 0 Z " fill="#4877B1" transform="translate(520,346)"/>
<path d="M0 0 C0.66 0 1.32 0 2 0 C2.33 0.99 2.66 1.98 3 3 C2.01 3 1.02 3 0 3 C0 2.01 0 1.02 0 0 Z " fill="#4379B5" transform="translate(212,345)"/>
<path d="M0 0 C0.66 0 1.32 0 2 0 C1.34 1.32 0.68 2.64 0 4 C-0.33 3.34 -0.66 2.68 -1 2 C-0.67 1.34 -0.34 0.68 0 0 Z " fill="#4B63B2" transform="translate(155,307)"/>
<path d="M0 0 C0.99 0.99 1.98 1.98 3 3 C1.68 2.67 0.36 2.34 -1 2 C-0.67 1.34 -0.34 0.68 0 0 Z " fill="#4779B4" transform="translate(239,266)"/>
<path d="M0 0 C0.66 0 1.32 0 2 0 C1.67 1.32 1.34 2.64 1 4 C0.67 2.68 0.34 1.36 0 0 Z " fill="#4678B2" transform="translate(200,412)"/>
<path d="M0 0 C0.33 1.32 0.66 2.64 1 4 C0.67 3.34 0.34 2.68 0 2 C-0.66 1.67 -1.32 1.34 -2 1 C-1.34 0.67 -0.68 0.34 0 0 Z " fill="#417BB5" transform="translate(511,403)"/>
<path d="M0 0 C1.485 0.99 1.485 0.99 3 2 C2.01 2.33 1.02 2.66 0 3 C0 2.01 0 1.02 0 0 Z " fill="#4778B1" transform="translate(352,385)"/>
<path d="M0 0 C0.99 0 1.98 0 3 0 C2.67 0.99 2.34 1.98 2 3 C1.34 2.01 0.68 1.02 0 0 Z " fill="#4778B0" transform="translate(530,365)"/>
<path d="M0 0 C0.66 0 1.32 0 2 0 C2 0.99 2 1.98 2 3 C1.34 3 0.68 3 0 3 C0 2.01 0 1.02 0 0 Z " fill="#4878AF" transform="translate(336,364)"/>
<path d="M0 0 C1.32 0.33 2.64 0.66 4 1 C3.01 1.495 3.01 1.495 2 2 C1.34 1.34 0.68 0.68 0 0 Z " fill="#407CB7" transform="translate(464,409)"/>
<path d="M0 0 C1.98 0.99 1.98 0.99 4 2 C2.68 2 1.36 2 0 2 C0 1.34 0 0.68 0 0 Z " fill="#4778B2" transform="translate(470,392)"/>
<path d="M0 0 C0.66 0 1.32 0 2 0 C2 0.66 2 1.32 2 2 C1.01 1.67 0.02 1.34 -1 1 C-0.67 0.67 -0.34 0.34 0 0 Z " fill="#4878B1" transform="translate(445,393)"/>
<path d="M0 0 C0.66 0 1.32 0 2 0 C1.67 0.99 1.34 1.98 1 3 C0.67 2.01 0.34 1.02 0 0 Z " fill="#4778B0" transform="translate(413,391)"/>
<path d="M0 0 C0.33 0.99 0.66 1.98 1 3 C0.01 2.67 -0.98 2.34 -2 2 C-1.34 2 -0.68 2 0 2 C0 1.34 0 0.68 0 0 Z " fill="#4877B0" transform="translate(380,388)"/>
<path d="M0 0 C1.485 0.99 1.485 0.99 3 2 C2.01 2 1.02 2 0 2 C0 1.34 0 0.68 0 0 Z " fill="#4978AF" transform="translate(406,387)"/>
<path d="M0 0 C0.99 0.495 0.99 0.495 2 1 C2 1.66 2 2.32 2 3 C1.34 3 0.68 3 0 3 C0 2.01 0 1.02 0 0 Z " fill="#4879B0" transform="translate(502,379)"/>
<path d="M0 0 C0.99 1.485 0.99 1.485 2 3 C1.01 3.495 1.01 3.495 0 4 C0 2.68 0 1.36 0 0 Z " fill="#3875BF" transform="translate(155,369)"/>
<path d="M0 0 C0.33 0.99 0.66 1.98 1 3 C0.34 3 -0.32 3 -1 3 C-0.67 2.01 -0.34 1.02 0 0 Z " fill="#4873AF" transform="translate(506,301)"/>
<path d="M0 0 C0.99 0 1.98 0 3 0 C3 0.66 3 1.32 3 2 C2.01 1.67 1.02 1.34 0 1 C0 0.67 0 0.34 0 0 Z " fill="#4777B1" transform="translate(470,290)"/>
<path d="M0 0 C0.99 0 1.98 0 3 0 C2.67 0.66 2.34 1.32 2 2 C1.34 2 0.68 2 0 2 C0 1.34 0 0.68 0 0 Z " fill="#4877B2" transform="translate(259,275)"/>
<path d="M0 0 C0.99 0.495 0.99 0.495 2 1 C2 1.66 2 2.32 2 3 C1.34 3 0.68 3 0 3 C0 2.01 0 1.02 0 0 Z " fill="#4877B0" transform="translate(205,265)"/>
<path d="M0 0 C0.99 0.33 1.98 0.66 3 1 C2.01 1 1.02 1 0 1 C0 0.67 0 0.34 0 0 Z " fill="#3B7FBB" transform="translate(394,408)"/>
<path d="M0 0 C4 1 4 1 4 1 Z " fill="#3781BE" transform="translate(305,408)"/>
<path d="M0 0 C0.99 0.33 1.98 0.66 3 1 C2.01 1.33 1.02 1.66 0 2 C0 1.34 0 0.68 0 0 Z " fill="#4778B1" transform="translate(399,404)"/>
<path d="M0 0 C0.66 0.66 1.32 1.32 2 2 C1.01 2.495 1.01 2.495 0 3 C0 2.01 0 1.02 0 0 Z " fill="#248BCD" transform="translate(315,403)"/>
<path d="M0 0 C0.66 0 1.32 0 2 0 C2 0.66 2 1.32 2 2 C1.34 2 0.68 2 0 2 C0 1.34 0 0.68 0 0 Z " fill="#4778B0" transform="translate(556,403)"/>
<path d="M0 0 C0.66 0 1.32 0 2 0 C2 0.66 2 1.32 2 2 C1.34 2 0.68 2 0 2 C0 1.34 0 0.68 0 0 Z " fill="#4778B1" transform="translate(295,399)"/>
<path d="M0 0 C0.66 0 1.32 0 2 0 C2 0.66 2 1.32 2 2 C1.34 2 0.68 2 0 2 C0 1.34 0 0.68 0 0 Z " fill="#4878B1" transform="translate(527,394)"/>
<path d="M0 0 C0.66 0.66 1.32 1.32 2 2 C1.01 2.495 1.01 2.495 0 3 C0 2.01 0 1.02 0 0 Z " fill="#4877B0" transform="translate(390,391)"/>
<path d="M0 0 C0.66 0 1.32 0 2 0 C2 0.66 2 1.32 2 2 C1.34 2 0.68 2 0 2 C0 1.34 0 0.68 0 0 Z " fill="#4877B1" transform="translate(537,391)"/>
<path d="M0 0 C0.99 0.33 1.98 0.66 3 1 C2.01 1 1.02 1 0 1 C0 0.67 0 0.34 0 0 Z " fill="#4978AE" transform="translate(570,390)"/>
<path d="M0 0 C0.33 0.66 0.66 1.32 1 2 C0.01 1.67 -0.98 1.34 -2 1 C-1.34 0.67 -0.68 0.34 0 0 Z " fill="#4877B0" transform="translate(406,390)"/>
<path d="M0 0 C1 4 1 4 1 4 Z " fill="#4778B1" transform="translate(547,385)"/>
<path d="M0 0 C1 4 1 4 1 4 Z " fill="#5C7CA4" transform="translate(431,384)"/>
<path d="M0 0 C0.66 0 1.32 0 2 0 C2 0.66 2 1.32 2 2 C1.34 2 0.68 2 0 2 C0 1.34 0 0.68 0 0 Z " fill="#4778B0" transform="translate(266,383)"/>
<path d="M0 0 C0 3 0 3 0 3 Z " fill="#5A7CA5" transform="translate(499,353)"/>
<path d="M0 0 C0.99 0.33 1.98 0.66 3 1 C2.01 1 1.02 1 0 1 C0 0.67 0 0.34 0 0 Z " fill="#637E9D" transform="translate(540,351)"/>
<path d="M0 0 C0.99 0.495 0.99 0.495 2 1 C1.67 1.66 1.34 2.32 1 3 C0.67 2.01 0.34 1.02 0 0 Z " fill="#4778B1" transform="translate(552,347)"/>
<path d="M0 0 C0.66 0 1.32 0 2 0 C2 0.66 2 1.32 2 2 C1.34 2 0.68 2 0 2 C0 1.34 0 0.68 0 0 Z " fill="#4878B0" transform="translate(320,344)"/>
<path d="M0 0 C0.99 0.495 0.99 0.495 2 1 C1.34 1.66 0.68 2.32 0 3 C0 2.01 0 1.02 0 0 Z " fill="#4778B0" transform="translate(476,333)"/>
<path d="M0 0 C1.485 0.99 1.485 0.99 3 2 C2.01 2 1.02 2 0 2 C0 1.34 0 0.68 0 0 Z " fill="#4878B0" transform="translate(330,333)"/>
<path d="M0 0 C0.66 0 1.32 0 2 0 C2 0.66 2 1.32 2 2 C1.34 2 0.68 2 0 2 C0 1.34 0 0.68 0 0 Z " fill="#3D78B6" transform="translate(323,332)"/>
<path d="M0 0 C4 1 4 1 4 1 Z " fill="#3D77B6" transform="translate(494,332)"/>
<path d="M0 0 C0 3 0 3 0 3 Z " fill="#3478B9" transform="translate(371,329)"/>
<path d="M0 0 C0.99 0.495 0.99 0.495 2 1 C1.34 1.66 0.68 2.32 0 3 C0 2.01 0 1.02 0 0 Z " fill="#4573B2" transform="translate(553,315)"/>
<path d="M0 0 C0.99 0.495 0.99 0.495 2 1 C1.67 1.66 1.34 2.32 1 3 C0.67 2.01 0.34 1.02 0 0 Z " fill="#4777B0" transform="translate(559,312)"/>
<path d="M0 0 C0 3 0 3 0 3 Z " fill="#4A70AC" transform="translate(473,306)"/>
<path d="M0 0 C0.66 0.66 1.32 1.32 2 2 C1.01 1.67 0.02 1.34 -1 1 C-0.67 0.67 -0.34 0.34 0 0 Z " fill="#4875B0" transform="translate(218,299)"/>
<path d="M0 0 C0 3 0 3 0 3 Z " fill="#4877B1" transform="translate(342,289)"/>
<path d="M0 0 C0.33 0.66 0.66 1.32 1 2 C0.34 1.67 -0.32 1.34 -1 1 C-0.67 0.67 -0.34 0.34 0 0 Z " fill="#4878B2" transform="translate(488,411)"/>
<path d="M0 0 C0.66 0.66 1.32 1.32 2 2 C1.34 2 0.68 2 0 2 C0 1.34 0 0.68 0 0 Z " fill="#3980BD" transform="translate(485,410)"/>
<path d="M0 0 C0.66 0.66 1.32 1.32 2 2 C1.34 2 0.68 2 0 2 C0 1.34 0 0.68 0 0 Z " fill="#4777B0" transform="translate(430,409)"/>
<path d="M0 0 C0.66 0.66 1.32 1.32 2 2 C1.34 2 0.68 2 0 2 C0 1.34 0 0.68 0 0 Z " fill="#3283C0" transform="translate(427,408)"/>
<path d="M0 0 C0.66 0 1.32 0 2 0 C1.67 0.66 1.34 1.32 1 2 C0.67 1.34 0.34 0.68 0 0 Z " fill="#3880BE" transform="translate(287,408)"/>
<path d="M0 0 C0.66 0.66 1.32 1.32 2 2 C1.34 2 0.68 2 0 2 C0 1.34 0 0.68 0 0 Z " fill="#2689CB" transform="translate(550,403)"/>
<path d="M0 0 C0.33 0.66 0.66 1.32 1 2 C0.34 1.67 -0.32 1.34 -1 1 C-0.67 0.67 -0.34 0.34 0 0 Z " fill="#4873B4" transform="translate(236,404)"/>
<path d="" fill="#4878AF" transform="translate(0,0)"/>
<path d="M0 0 C0.66 0.66 1.32 1.32 2 2 C1.34 2 0.68 2 0 2 C0 1.34 0 0.68 0 0 Z " fill="#3880BC" transform="translate(313,395)"/>
<path d="M0 0 C0.33 0.66 0.66 1.32 1 2 C0.34 1.67 -0.32 1.34 -1 1 C-0.67 0.67 -0.34 0.34 0 0 Z " fill="#4678B1" transform="translate(535,395)"/>
<path d="" fill="#4877B1" transform="translate(0,0)"/>
<path d="M0 0 C0.33 0.66 0.66 1.32 1 2 C0.34 1.67 -0.32 1.34 -1 1 C-0.67 0.67 -0.34 0.34 0 0 Z " fill="#4778B0" transform="translate(293,393)"/>
<path d="M0 0 C0.66 0 1.32 0 2 0 C1.67 0.66 1.34 1.32 1 2 C0.67 1.34 0.34 0.68 0 0 Z " fill="#4878B1" transform="translate(494,391)"/>
<path d="M0 0 C0.99 0.495 0.99 0.495 2 1 C1.01 1.495 1.01 1.495 0 2 C0 1.34 0 0.68 0 0 Z " fill="#4778B1" transform="translate(330,391)"/>
<path d="M0 0 C3 1 3 1 3 1 Z " fill="#417AB7" transform="translate(252,391)"/>
<path d="M0 0 C0.33 0.66 0.66 1.32 1 2 C0.34 1.67 -0.32 1.34 -1 1 C-0.67 0.67 -0.34 0.34 0 0 Z " fill="#4878B1" transform="translate(467,390)"/>
<path d="" fill="#4778B0" transform="translate(0,0)"/>
<path d="M0 0 C0.66 0.66 1.32 1.32 2 2 C1.34 2 0.68 2 0 2 C0 1.34 0 0.68 0 0 Z " fill="#4778B0" transform="translate(578,387)"/>
<path d="M0 0 C0.66 0 1.32 0 2 0 C1.67 0.66 1.34 1.32 1 2 C0.67 1.34 0.34 0.68 0 0 Z " fill="#547AA8" transform="translate(306,380)"/>
<path d="M0 0 C0.66 0.66 1.32 1.32 2 2 C1.34 2 0.68 2 0 2 C0 1.34 0 0.68 0 0 Z " fill="#4878B0" transform="translate(267,378)"/>
<path d="M0 0 C3 1 3 1 3 1 Z " fill="#4B79AF" transform="translate(350,378)"/>
<path d="M0 0 C0.66 0 1.32 0 2 0 C1.67 0.66 1.34 1.32 1 2 C0.67 1.34 0.34 0.68 0 0 Z " fill="#4878AE" transform="translate(371,376)"/>
<path d="" fill="#5C7CA6" transform="translate(0,0)"/>
<path d="M0 0 C0.33 0.66 0.66 1.32 1 2 C0.34 1.67 -0.32 1.34 -1 1 C-0.67 0.67 -0.34 0.34 0 0 Z " fill="#4778B1" transform="translate(405,346)"/>
<path d="" fill="#4878B0" transform="translate(0,0)"/>
<path d="M0 0 C0.66 0.66 1.32 1.32 2 2 C1.34 2 0.68 2 0 2 C0 1.34 0 0.68 0 0 Z " fill="#4877B0" transform="translate(529,344)"/>
<path d="M0 0 C0.33 0.66 0.66 1.32 1 2 C0.34 1.67 -0.32 1.34 -1 1 C-0.67 0.67 -0.34 0.34 0 0 Z " fill="#4778B0" transform="translate(515,345)"/>
<path d="" fill="#4978B1" transform="translate(0,0)"/>
<path d="M0 0 C0.66 0 1.32 0 2 0 C1.67 0.66 1.34 1.32 1 2 C0.67 1.34 0.34 0.68 0 0 Z " fill="#4778B0" transform="translate(344,333)"/>
<path d="M0 0 C3 1 3 1 3 1 Z " fill="#4877B1" transform="translate(266,333)"/>
<path d="M0 0 C3 1 3 1 3 1 Z " fill="#3278BB" transform="translate(486,332)"/>
<path d="" fill="#4778B1" transform="translate(0,0)"/>
<path d="" fill="#4968AB" transform="translate(0,0)"/>
<path d="M0 0 C0.33 0.66 0.66 1.32 1 2 C0.34 1.67 -0.32 1.34 -1 1 C-0.67 0.67 -0.34 0.34 0 0 Z " fill="#4778B1" transform="translate(307,311)"/>
<path d="M0 0 C0.66 0 1.32 0 2 0 C1.67 0.66 1.34 1.32 1 2 C0.67 1.34 0.34 0.68 0 0 Z " fill="#4A6DAC" transform="translate(505,309)"/>
<path d="" fill="#4877B1" transform="translate(0,0)"/>
<path d="" fill="#4E65A7" transform="translate(0,0)"/>
<path d="" fill="#4977B0" transform="translate(0,0)"/>
<path d="M0 0 C0.66 0 1.32 0 2 0 C1.67 0.66 1.34 1.32 1 2 C0.67 1.34 0.34 0.68 0 0 Z " fill="#4E6CA5" transform="translate(476,291)"/>
<path d="M0 0 C0.33 0.66 0.66 1.32 1 2 C0.34 1.67 -0.32 1.34 -1 1 C-0.67 0.67 -0.34 0.34 0 0 Z " fill="#4778B0" transform="translate(203,267)"/>
<path d="M0 0 C3 1 3 1 3 1 Z " fill="#4978B2" transform="translate(229,266)"/>
<path d="M0 0 C3 1 3 1 3 1 Z " fill="#4878B0" transform="translate(231,264)"/>
<path d="" fill="#4878B1" transform="translate(0,0)"/>
<path d="" fill="#4878B1" transform="translate(0,0)"/>
<path d="" fill="#4877AF" transform="translate(0,0)"/>
<path d="" fill="#4678B3" transform="translate(0,0)"/>
<path d="" fill="#4878B0" transform="translate(0,0)"/>
<path d="" fill="#3084C3" transform="translate(0,0)"/>
<path d="M0 0 C2 1 2 1 2 1 Z " fill="#298ACB" transform="translate(277,411)"/>
<path d="M0 0 C2 1 2 1 2 1 Z " fill="#3C7EBA" transform="translate(349,409)"/>
<path d="M0 0 C2 1 2 1 2 1 Z " fill="#4778B0" transform="translate(328,409)"/>
<path d="" fill="#4878B0" transform="translate(0,0)"/>
<path d="M0 0 C2 1 2 1 2 1 Z " fill="#4779B0" transform="translate(286,406)"/>
<path d="M0 0 C2 1 2 1 2 1 Z " fill="#4778B1" transform="translate(403,404)"/>
<path d="M0 0 C2 1 2 1 2 1 Z " fill="#4878B1" transform="translate(249,397)"/>
<path d="M0 0 C2 1 2 1 2 1 Z " fill="#4778B3" transform="translate(343,396)"/>
<path d="" fill="#4878B1" transform="translate(0,0)"/>
<path d="M0 0 C2 1 2 1 2 1 Z " fill="#4779B1" transform="translate(409,395)"/>
<path d="M0 0 C2 1 2 1 2 1 Z " fill="#4778AF" transform="translate(322,395)"/>
<path d="M0 0 C2 1 2 1 2 1 Z " fill="#4778B1" transform="translate(250,395)"/>
<path d="M0 0 C2 1 2 1 2 1 Z " fill="#4778B1" transform="translate(419,394)"/>
<path d="M0 0 C2 1 2 1 2 1 Z " fill="#4878B0" transform="translate(324,394)"/>
<path d="" fill="#4878B0" transform="translate(0,0)"/>
<path d="" fill="#4878B2" transform="translate(0,0)"/>
<path d="" fill="#4777AE" transform="translate(0,0)"/>
<path d="" fill="#4777B1" transform="translate(0,0)"/>
<path d="" fill="#4778B2" transform="translate(0,0)"/>
<path d="" fill="#4777B1" transform="translate(0,0)"/>
<path d="M0 0 C2 1 2 1 2 1 Z " fill="#4778B0" transform="translate(353,391)"/>
<path d="M0 0 C2 1 2 1 2 1 Z " fill="#5C7CA4" transform="translate(393,390)"/>
<path d="M0 0 C2 1 2 1 2 1 Z " fill="#597CA3" transform="translate(388,390)"/>
<path d="" fill="#4877B1" transform="translate(0,0)"/>
<path d="M0 0 C2 1 2 1 2 1 Z " fill="#577BA8" transform="translate(292,390)"/>
<path d="" fill="#587CA6" transform="translate(0,0)"/>
<path d="" fill="#3F7CB8" transform="translate(0,0)"/>
<path d="M0 0 C2 1 2 1 2 1 Z " fill="#5179AB" transform="translate(548,380)"/>
<path d="M0 0 C2 1 2 1 2 1 Z " fill="#4776B1" transform="translate(221,380)"/>
<path d="" fill="#4C79AE" transform="translate(0,0)"/>
<path d="" fill="#517AA9" transform="translate(0,0)"/>
<path d="" fill="#4878B1" transform="translate(0,0)"/>
<path d="" fill="#4777B1" transform="translate(0,0)"/>
<path d="M0 0 C2 1 2 1 2 1 Z " fill="#4878B1" transform="translate(216,377)"/>
<path d="M0 0 C2 1 2 1 2 1 Z " fill="#5D7DA2" transform="translate(551,376)"/>
<path d="M0 0 C2 1 2 1 2 1 Z " fill="#607E9E" transform="translate(337,376)"/>
<path d="" fill="#456BB6" transform="translate(0,0)"/>
<path d="" fill="#5B7DA1" transform="translate(0,0)"/>
<path d="" fill="#5D7DA3" transform="translate(0,0)"/>
<path d="" fill="#677F9E" transform="translate(0,0)"/>
<path d="" fill="#4877AF" transform="translate(0,0)"/>
<path d="M0 0 C2 1 2 1 2 1 Z " fill="#527AAA" transform="translate(570,364)"/>
<path d="M0 0 C2 1 2 1 2 1 Z " fill="#6A809A" transform="translate(489,361)"/>
<path d="" fill="#67809C" transform="translate(0,0)"/>
<path d="M0 0 C2 1 2 1 2 1 Z " fill="#4778B0" transform="translate(329,359)"/>
<path d="M0 0 C2 1 2 1 2 1 Z " fill="#587BA5" transform="translate(479,358)"/>
<path d="" fill="#4779B1" transform="translate(0,0)"/>
<path d="" fill="#3E72BB" transform="translate(0,0)"/>
<path d="M0 0 C2 1 2 1 2 1 Z " fill="#68809B" transform="translate(335,348)"/>
<path d="M0 0 C2 1 2 1 2 1 Z " fill="#4878B1" transform="translate(289,348)"/>
<path d="M0 0 C2 1 2 1 2 1 Z " fill="#4878B1" transform="translate(238,348)"/>
<path d="M0 0 C2 1 2 1 2 1 Z " fill="#4777B1" transform="translate(412,347)"/>
<path d="M0 0 C2 1 2 1 2 1 Z " fill="#5E7DA2" transform="translate(327,347)"/>
<path d="" fill="#4878B1" transform="translate(0,0)"/>
<path d="" fill="#4778B1" transform="translate(0,0)"/>
<path d="" fill="#5D7DA3" transform="translate(0,0)"/>
<path d="M0 0 C2 1 2 1 2 1 Z " fill="#527AA8" transform="translate(278,336)"/>
<path d="" fill="#4878B2" transform="translate(0,0)"/>
<path d="" fill="#4778B1" transform="translate(0,0)"/>
<path d="" fill="#4878B1" transform="translate(0,0)"/>
<path d="M0 0 C2 1 2 1 2 1 Z " fill="#4978B0" transform="translate(489,334)"/>
<path d="M0 0 C2 1 2 1 2 1 Z " fill="#4778B2" transform="translate(573,333)"/>
<path d="" fill="#4778B0" transform="translate(0,0)"/>
<path d="" fill="#3F78B4" transform="translate(0,0)"/>
<path d="M0 0 C2 1 2 1 2 1 Z " fill="#3378BA" transform="translate(490,332)"/>
<path d="M0 0 C2 1 2 1 2 1 Z " fill="#4778B1" transform="translate(415,332)"/>
<path d="M0 0 C2 1 2 1 2 1 Z " fill="#3279BA" transform="translate(399,332)"/>
<path d="M0 0 C2 1 2 1 2 1 Z " fill="#2878C0" transform="translate(395,331)"/>
<path d="M0 0 C2 1 2 1 2 1 Z " fill="#4778B0" transform="translate(508,324)"/>
<path d="" fill="#466FAF" transform="translate(0,0)"/>
<path d="" fill="#4977B1" transform="translate(0,0)"/>
<path d="" fill="#4273B2" transform="translate(0,0)"/>
<path d="M0 0 C2 1 2 1 2 1 Z " fill="#4774B3" transform="translate(204,311)"/>
<path d="M0 0 C2 1 2 1 2 1 Z " fill="#4D63A9" transform="translate(285,310)"/>
<path d="M0 0 C2 1 2 1 2 1 Z " fill="#5060A6" transform="translate(503,308)"/>
<path d="" fill="#4C69AB" transform="translate(0,0)"/>
<path d="" fill="#4978B1" transform="translate(0,0)"/>
<path d="" fill="#5150B2" transform="translate(0,0)"/>
<path d="" fill="#5164A4" transform="translate(0,0)"/>
<path d="M0 0 C2 1 2 1 2 1 Z " fill="#4978B0" transform="translate(471,297)"/>
<path d="" fill="#5C569C" transform="translate(0,0)"/>
<path d="" fill="#4778B1" transform="translate(0,0)"/>
<path d="M0 0 C2 1 2 1 2 1 Z " fill="#4D63B0" transform="translate(223,295)"/>
<path d="" fill="#575EA1" transform="translate(0,0)"/>
<path d="" fill="#5267A6" transform="translate(0,0)"/>
<path d="" fill="#4779B2" transform="translate(0,0)"/>
<path d="M0 0 C2 1 2 1 2 1 Z " fill="#635298" transform="translate(525,287)"/>
<path d="M0 0 C2 1 2 1 2 1 Z " fill="#2689C8" transform="translate(256,276)"/>
<path d="M0 0 C2 1 2 1 2 1 Z " fill="#4B71B0" transform="translate(210,267)"/>
<path d="" fill="#4879B4" transform="translate(0,0)"/>
<path d="" fill="#4878B2" transform="translate(0,0)"/>
<path d="" fill="#1792D7" transform="translate(0,0)"/>
<path d="" fill="#4778B1" transform="translate(0,0)"/>
<path d="" fill="#1792D7" transform="translate(0,0)"/>
<path d="" fill="#4977B2" transform="translate(0,0)"/>
<path d="" fill="#3184C4" transform="translate(0,0)"/>
<path d="" fill="#2F84C4" transform="translate(0,0)"/>
<path d="" fill="#4878B1" transform="translate(0,0)"/>
<path d="" fill="#208DD5" transform="translate(0,0)"/>
<path d="" fill="#4878B3" transform="translate(0,0)"/>
<path d="" fill="#4978B2" transform="translate(0,0)"/>
<path d="" fill="#3085C7" transform="translate(0,0)"/>
<path d="" fill="#3184C2" transform="translate(0,0)"/>
<path d="" fill="#4978B1" transform="translate(0,0)"/>
<path d="" fill="#1F8FCE" transform="translate(0,0)"/>
<path d="" fill="#1992D5" transform="translate(0,0)"/>
<path d="" fill="#1892D4" transform="translate(0,0)"/>
<path d="" fill="#2989C8" transform="translate(0,0)"/>
<path d="" fill="#3185C0" transform="translate(0,0)"/>
<path d="" fill="#3880BE" transform="translate(0,0)"/>
<path d="" fill="#4F6EAC" transform="translate(0,0)"/>
<path d="" fill="#3F7DB7" transform="translate(0,0)"/>
<path d="" fill="#2E87C6" transform="translate(0,0)"/>
<path d="" fill="#2888C7" transform="translate(0,0)"/>
<path d="" fill="#3780BC" transform="translate(0,0)"/>
<path d="" fill="#2E85C4" transform="translate(0,0)"/>
<path d="" fill="#4778B2" transform="translate(0,0)"/>
<path d="" fill="#4878B1" transform="translate(0,0)"/>
<path d="" fill="#228CCC" transform="translate(0,0)"/>
<path d="" fill="#2F85C6" transform="translate(0,0)"/>
<path d="" fill="#4778B0" transform="translate(0,0)"/>
<path d="" fill="#089AE2" transform="translate(0,0)"/>
<path d="" fill="#218DCB" transform="translate(0,0)"/>
<path d="" fill="#4875B2" transform="translate(0,0)"/>
<path d="" fill="#3282C3" transform="translate(0,0)"/>
<path d="" fill="#4878B1" transform="translate(0,0)"/>
<path d="" fill="#2889C7" transform="translate(0,0)"/>
<path d="" fill="#4878B1" transform="translate(0,0)"/>
<path d="" fill="#4E6CB1" transform="translate(0,0)"/>
<path d="" fill="#1F8FD1" transform="translate(0,0)"/>
<path d="" fill="#3184C3" transform="translate(0,0)"/>
<path d="" fill="#4878B1" transform="translate(0,0)"/>
<path d="" fill="#208ED2" transform="translate(0,0)"/>
<path d="" fill="#1694D9" transform="translate(0,0)"/>
<path d="" fill="#4778B2" transform="translate(0,0)"/>
<path d="" fill="#4978AF" transform="translate(0,0)"/>
<path d="" fill="#4879B1" transform="translate(0,0)"/>
<path d="" fill="#4878B1" transform="translate(0,0)"/>
<path d="" fill="#4777B3" transform="translate(0,0)"/>
<path d="" fill="#208ED2" transform="translate(0,0)"/>
<path d="" fill="#3185C4" transform="translate(0,0)"/>
<path d="" fill="#1991D7" transform="translate(0,0)"/>
<path d="" fill="#4878B0" transform="translate(0,0)"/>
<path d="" fill="#4879B2" transform="translate(0,0)"/>
<path d="" fill="#3085C5" transform="translate(0,0)"/>
<path d="" fill="#3185C5" transform="translate(0,0)"/>
<path d="" fill="#1792D5" transform="translate(0,0)"/>
<path d="" fill="#4778B1" transform="translate(0,0)"/>
<path d="" fill="#228DCD" transform="translate(0,0)"/>
<path d="" fill="#208ED3" transform="translate(0,0)"/>
<path d="" fill="#1991D7" transform="translate(0,0)"/>
<path d="" fill="#4778B2" transform="translate(0,0)"/>
<path d="" fill="#4778B1" transform="translate(0,0)"/>
<path d="" fill="#2989C9" transform="translate(0,0)"/>
<path d="" fill="#1991D4" transform="translate(0,0)"/>
<path d="" fill="#3781BF" transform="translate(0,0)"/>
<path d="" fill="#4977B0" transform="translate(0,0)"/>
<path d="" fill="#4977AF" transform="translate(0,0)"/>
<path d="" fill="#4679B2" transform="translate(0,0)"/>
<path d="" fill="#1F8DD1" transform="translate(0,0)"/>
<path d="" fill="#218DD0" transform="translate(0,0)"/>
<path d="" fill="#3085C2" transform="translate(0,0)"/>
<path d="" fill="#3284C0" transform="translate(0,0)"/>
<path d="" fill="#3085C3" transform="translate(0,0)"/>
<path d="" fill="#4878B1" transform="translate(0,0)"/>
<path d="" fill="#4778B2" transform="translate(0,0)"/>
<path d="" fill="#4A78B0" transform="translate(0,0)"/>
<path d="" fill="#4879B3" transform="translate(0,0)"/>
<path d="" fill="#4878B0" transform="translate(0,0)"/>
<path d="" fill="#3980BA" transform="translate(0,0)"/>
<path d="" fill="#4679B3" transform="translate(0,0)"/>
<path d="" fill="#3E79BA" transform="translate(0,0)"/>
<path d="" fill="#2286CE" transform="translate(0,0)"/>
<path d="" fill="#4778B2" transform="translate(0,0)"/>
<path d="" fill="#4779B2" transform="translate(0,0)"/>
<path d="" fill="#4878B1" transform="translate(0,0)"/>
<path d="" fill="#4978B0" transform="translate(0,0)"/>
<path d="" fill="#4878B0" transform="translate(0,0)"/>
<path d="" fill="#4878B1" transform="translate(0,0)"/>
<path d="" fill="#4878AF" transform="translate(0,0)"/>
<path d="" fill="#4778B2" transform="translate(0,0)"/>
<path d="" fill="#4778B1" transform="translate(0,0)"/>
<path d="" fill="#4778B3" transform="translate(0,0)"/>
<path d="" fill="#4878B1" transform="translate(0,0)"/>
<path d="" fill="#4977B1" transform="translate(0,0)"/>
<path d="" fill="#4878B1" transform="translate(0,0)"/>
<path d="" fill="#4878B0" transform="translate(0,0)"/>
<path d="" fill="#4778B1" transform="translate(0,0)"/>
<path d="" fill="#4878B1" transform="translate(0,0)"/>
<path d="" fill="#4778AF" transform="translate(0,0)"/>
<path d="" fill="#4878B0" transform="translate(0,0)"/>
<path d="" fill="#4778AF" transform="translate(0,0)"/>
<path d="" fill="#4878B1" transform="translate(0,0)"/>
<path d="" fill="#4778B1" transform="translate(0,0)"/>
<path d="" fill="#3B7CBA" transform="translate(0,0)"/>
<path d="" fill="#4878B0" transform="translate(0,0)"/>
<path d="" fill="#4878B0" transform="translate(0,0)"/>
<path d="" fill="#4879B0" transform="translate(0,0)"/>
<path d="" fill="#4878B0" transform="translate(0,0)"/>
<path d="" fill="#4878B0" transform="translate(0,0)"/>
<path d="" fill="#4479B5" transform="translate(0,0)"/>
<path d="" fill="#4978B2" transform="translate(0,0)"/>
<path d="" fill="#4878B0" transform="translate(0,0)"/>
<path d="" fill="#4779B1" transform="translate(0,0)"/>
<path d="" fill="#4877B2" transform="translate(0,0)"/>
<path d="" fill="#4679B0" transform="translate(0,0)"/>
<path d="" fill="#4A78B0" transform="translate(0,0)"/>
<path d="" fill="#4878AF" transform="translate(0,0)"/>
<path d="" fill="#4778B1" transform="translate(0,0)"/>
<path d="" fill="#4778B1" transform="translate(0,0)"/>
<path d="" fill="#4778B3" transform="translate(0,0)"/>
<path d="" fill="#4978B1" transform="translate(0,0)"/>
<path d="" fill="#4977AF" transform="translate(0,0)"/>
<path d="" fill="#4978B0" transform="translate(0,0)"/>
<path d="" fill="#4778B0" transform="translate(0,0)"/>
<path d="" fill="#4978AF" transform="translate(0,0)"/>
<path d="" fill="#4777B0" transform="translate(0,0)"/>
<path d="" fill="#4879B2" transform="translate(0,0)"/>
<path d="" fill="#5D7EA2" transform="translate(0,0)"/>
<path d="" fill="#4978AF" transform="translate(0,0)"/>
<path d="" fill="#4978B0" transform="translate(0,0)"/>
<path d="" fill="#4878B1" transform="translate(0,0)"/>
<path d="" fill="#6C819B" transform="translate(0,0)"/>
<path d="" fill="#4878B0" transform="translate(0,0)"/>
<path d="" fill="#5A7DA4" transform="translate(0,0)"/>
<path d="" fill="#4778B3" transform="translate(0,0)"/>
<path d="" fill="#4777B2" transform="translate(0,0)"/>
<path d="" fill="#4878B2" transform="translate(0,0)"/>
<path d="" fill="#4777B3" transform="translate(0,0)"/>
<path d="" fill="#547BA9" transform="translate(0,0)"/>
<path d="" fill="#4878B2" transform="translate(0,0)"/>
<path d="" fill="#5B7CA4" transform="translate(0,0)"/>
<path d="" fill="#6B8098" transform="translate(0,0)"/>
<path d="" fill="#637F9D" transform="translate(0,0)"/>
<path d="" fill="#317CC3" transform="translate(0,0)"/>
<path d="" fill="#4778B1" transform="translate(0,0)"/>
<path d="" fill="#357BC3" transform="translate(0,0)"/>
<path d="" fill="#4778B1" transform="translate(0,0)"/>
<path d="" fill="#4678B1" transform="translate(0,0)"/>
<path d="" fill="#597CA7" transform="translate(0,0)"/>
<path d="" fill="#748394" transform="translate(0,0)"/>
<path d="" fill="#758492" transform="translate(0,0)"/>
<path d="" fill="#4677B2" transform="translate(0,0)"/>
<path d="" fill="#4878B2" transform="translate(0,0)"/>
<path d="" fill="#4878B0" transform="translate(0,0)"/>
<path d="" fill="#6D809A" transform="translate(0,0)"/>
<path d="" fill="#4978B2" transform="translate(0,0)"/>
<path d="" fill="#6C8099" transform="translate(0,0)"/>
<path d="" fill="#6C8198" transform="translate(0,0)"/>
<path d="" fill="#537BA9" transform="translate(0,0)"/>
<path d="" fill="#5B7DA4" transform="translate(0,0)"/>
<path d="" fill="#4D70B1" transform="translate(0,0)"/>
<path d="" fill="#506EAF" transform="translate(0,0)"/>
<path d="" fill="#5C7CA3" transform="translate(0,0)"/>
<path d="" fill="#657FA0" transform="translate(0,0)"/>
<path d="" fill="#738296" transform="translate(0,0)"/>
<path d="" fill="#697F9C" transform="translate(0,0)"/>
<path d="" fill="#6D819A" transform="translate(0,0)"/>
<path d="" fill="#6F8099" transform="translate(0,0)"/>
<path d="" fill="#4577B4" transform="translate(0,0)"/>
<path d="" fill="#4777B0" transform="translate(0,0)"/>
<path d="" fill="#527AAA" transform="translate(0,0)"/>
<path d="" fill="#4778B1" transform="translate(0,0)"/>
<path d="" fill="#4778B0" transform="translate(0,0)"/>
<path d="" fill="#5E7DA3" transform="translate(0,0)"/>
<path d="" fill="#4B79B0" transform="translate(0,0)"/>
<path d="" fill="#4978AF" transform="translate(0,0)"/>
<path d="" fill="#5D7DA4" transform="translate(0,0)"/>
<path d="" fill="#387DBE" transform="translate(0,0)"/>
<path d="" fill="#4778B2" transform="translate(0,0)"/>
<path d="" fill="#4878B3" transform="translate(0,0)"/>
<path d="" fill="#637E9E" transform="translate(0,0)"/>
<path d="" fill="#738196" transform="translate(0,0)"/>
<path d="" fill="#4779B0" transform="translate(0,0)"/>
<path d="" fill="#4878B1" transform="translate(0,0)"/>
<path d="" fill="#4878B1" transform="translate(0,0)"/>
<path d="" fill="#5967A9" transform="translate(0,0)"/>
<path d="" fill="#4778B2" transform="translate(0,0)"/>
<path d="" fill="#657E9F" transform="translate(0,0)"/>
<path d="" fill="#4F7AAB" transform="translate(0,0)"/>
<path d="" fill="#4878B1" transform="translate(0,0)"/>
<path d="" fill="#6A55A4" transform="translate(0,0)"/>
<path d="" fill="#4778B1" transform="translate(0,0)"/>
<path d="" fill="#6D8198" transform="translate(0,0)"/>
<path d="" fill="#5C7CA2" transform="translate(0,0)"/>
<path d="" fill="#6B8098" transform="translate(0,0)"/>
<path d="" fill="#5D7DA3" transform="translate(0,0)"/>
<path d="" fill="#4878B1" transform="translate(0,0)"/>
<path d="" fill="#4978B0" transform="translate(0,0)"/>
<path d="" fill="#4878AF" transform="translate(0,0)"/>
<path d="" fill="#5A7DA6" transform="translate(0,0)"/>
<path d="" fill="#4878B1" transform="translate(0,0)"/>
<path d="" fill="#728194" transform="translate(0,0)"/>
<path d="" fill="#4677B1" transform="translate(0,0)"/>
<path d="" fill="#517AAA" transform="translate(0,0)"/>
<path d="" fill="#4978B1" transform="translate(0,0)"/>
<path d="" fill="#4978B1" transform="translate(0,0)"/>
<path d="" fill="#5379AB" transform="translate(0,0)"/>
<path d="" fill="#597DA4" transform="translate(0,0)"/>
<path d="" fill="#6B8099" transform="translate(0,0)"/>
<path d="" fill="#577BA5" transform="translate(0,0)"/>
<path d="" fill="#4778B3" transform="translate(0,0)"/>
<path d="" fill="#5F7DA1" transform="translate(0,0)"/>
<path d="" fill="#4778B2" transform="translate(0,0)"/>
<path d="" fill="#627EA0" transform="translate(0,0)"/>
<path d="" fill="#607EA0" transform="translate(0,0)"/>
<path d="" fill="#4977B1" transform="translate(0,0)"/>
<path d="" fill="#4878B0" transform="translate(0,0)"/>
<path d="" fill="#637F9F" transform="translate(0,0)"/>
<path d="" fill="#6C7F99" transform="translate(0,0)"/>
<path d="" fill="#4878B1" transform="translate(0,0)"/>
<path d="" fill="#5C7CA3" transform="translate(0,0)"/>
<path d="" fill="#657E9E" transform="translate(0,0)"/>
<path d="" fill="#577BA5" transform="translate(0,0)"/>
<path d="" fill="#218CCB" transform="translate(0,0)"/>
<path d="" fill="#4778B3" transform="translate(0,0)"/>
<path d="" fill="#6F8297" transform="translate(0,0)"/>
<path d="" fill="#647F9E" transform="translate(0,0)"/>
<path d="" fill="#4977B1" transform="translate(0,0)"/>
<path d="" fill="#4878B1" transform="translate(0,0)"/>
<path d="" fill="#4878B2" transform="translate(0,0)"/>
<path d="" fill="#4878B2" transform="translate(0,0)"/>
<path d="" fill="#607DA1" transform="translate(0,0)"/>
<path d="" fill="#1E8DCC" transform="translate(0,0)"/>
<path d="" fill="#4778B2" transform="translate(0,0)"/>
<path d="" fill="#66809E" transform="translate(0,0)"/>
<path d="" fill="#607EA2" transform="translate(0,0)"/>
<path d="" fill="#557BAA" transform="translate(0,0)"/>
<path d="" fill="#4677B1" transform="translate(0,0)"/>
<path d="" fill="#627E9D" transform="translate(0,0)"/>
<path d="" fill="#6B8099" transform="translate(0,0)"/>
<path d="" fill="#6B809A" transform="translate(0,0)"/>
<path d="" fill="#1F8DD1" transform="translate(0,0)"/>
<path d="" fill="#6B809A" transform="translate(0,0)"/>
<path d="" fill="#547BAA" transform="translate(0,0)"/>
<path d="" fill="#627F9F" transform="translate(0,0)"/>
<path d="" fill="#5D7DA1" transform="translate(0,0)"/>
<path d="" fill="#5C7DA3" transform="translate(0,0)"/>
<path d="" fill="#4878B1" transform="translate(0,0)"/>
<path d="" fill="#6C809A" transform="translate(0,0)"/>
<path d="" fill="#4878B1" transform="translate(0,0)"/>
<path d="" fill="#4978B0" transform="translate(0,0)"/>
<path d="" fill="#4678B2" transform="translate(0,0)"/>
<path d="" fill="#6C8099" transform="translate(0,0)"/>
<path d="" fill="#4878AF" transform="translate(0,0)"/>
<path d="" fill="#4778B0" transform="translate(0,0)"/>
<path d="" fill="#4878B0" transform="translate(0,0)"/>
<path d="" fill="#597CA4" transform="translate(0,0)"/>
<path d="" fill="#5D7DA3" transform="translate(0,0)"/>
<path d="" fill="#637E9F" transform="translate(0,0)"/>
<path d="" fill="#577BA6" transform="translate(0,0)"/>
<path d="" fill="#4A79AF" transform="translate(0,0)"/>
<path d="" fill="#4878B0" transform="translate(0,0)"/>
<path d="" fill="#4878AF" transform="translate(0,0)"/>
<path d="" fill="#4979B1" transform="translate(0,0)"/>
<path d="" fill="#4878B1" transform="translate(0,0)"/>
<path d="" fill="#4878B1" transform="translate(0,0)"/>
<path d="" fill="#4879AF" transform="translate(0,0)"/>
<path d="" fill="#4878B0" transform="translate(0,0)"/>
<path d="" fill="#4878B1" transform="translate(0,0)"/>
<path d="" fill="#4978B0" transform="translate(0,0)"/>
<path d="" fill="#4878B1" transform="translate(0,0)"/>
<path d="" fill="#4878B1" transform="translate(0,0)"/>
<path d="" fill="#4878B2" transform="translate(0,0)"/>
<path d="" fill="#758294" transform="translate(0,0)"/>
<path d="" fill="#4878B2" transform="translate(0,0)"/>
<path d="" fill="#4879AF" transform="translate(0,0)"/>
<path d="" fill="#1791D4" transform="translate(0,0)"/>
<path d="" fill="#4778B2" transform="translate(0,0)"/>
<path d="" fill="#4878B1" transform="translate(0,0)"/>
<path d="" fill="#4878B1" transform="translate(0,0)"/>
<path d="" fill="#4878B1" transform="translate(0,0)"/>
<path d="" fill="#1990D4" transform="translate(0,0)"/>
<path d="" fill="#4878B2" transform="translate(0,0)"/>
<path d="" fill="#4878B1" transform="translate(0,0)"/>
<path d="" fill="#4978B1" transform="translate(0,0)"/>
<path d="" fill="#1A91D2" transform="translate(0,0)"/>
<path d="" fill="#4878B1" transform="translate(0,0)"/>
<path d="" fill="#4777B1" transform="translate(0,0)"/>
<path d="" fill="#6D8098" transform="translate(0,0)"/>
<path d="" fill="#1E8BD2" transform="translate(0,0)"/>
<path d="" fill="#4778B1" transform="translate(0,0)"/>
<path d="" fill="#4878B2" transform="translate(0,0)"/>
<path d="" fill="#4777AE" transform="translate(0,0)"/>
<path d="" fill="#4577B2" transform="translate(0,0)"/>
<path d="" fill="#4878B1" transform="translate(0,0)"/>
<path d="" fill="#4779AF" transform="translate(0,0)"/>
<path d="" fill="#4878B1" transform="translate(0,0)"/>
<path d="" fill="#4878AF" transform="translate(0,0)"/>
<path d="" fill="#4879B1" transform="translate(0,0)"/>
<path d="" fill="#6C8098" transform="translate(0,0)"/>
<path d="" fill="#4879B1" transform="translate(0,0)"/>
<path d="" fill="#4778B1" transform="translate(0,0)"/>
<path d="" fill="#4878B1" transform="translate(0,0)"/>
<path d="" fill="#4778B1" transform="translate(0,0)"/>
<path d="" fill="#1791D5" transform="translate(0,0)"/>
<path d="" fill="#4778B1" transform="translate(0,0)"/>
<path d="" fill="#4879B1" transform="translate(0,0)"/>
<path d="" fill="#4879B2" transform="translate(0,0)"/>
<path d="" fill="#4977B2" transform="translate(0,0)"/>
<path d="" fill="#4979AF" transform="translate(0,0)"/>
<path d="" fill="#5C7EA5" transform="translate(0,0)"/>
<path d="" fill="#4878B1" transform="translate(0,0)"/>
<path d="" fill="#3277BA" transform="translate(0,0)"/>
<path d="" fill="#3B78B7" transform="translate(0,0)"/>
<path d="" fill="#4979B0" transform="translate(0,0)"/>
<path d="" fill="#4979B0" transform="translate(0,0)"/>
<path d="" fill="#307ABA" transform="translate(0,0)"/>
<path d="" fill="#3B78B7" transform="translate(0,0)"/>
<path d="" fill="#4678B3" transform="translate(0,0)"/>
<path d="" fill="#4977B2" transform="translate(0,0)"/>
<path d="" fill="#3578B8" transform="translate(0,0)"/>
<path d="" fill="#217BC2" transform="translate(0,0)"/>
<path d="" fill="#3084C2" transform="translate(0,0)"/>
<path d="" fill="#2D77BD" transform="translate(0,0)"/>
<path d="" fill="#2F78BB" transform="translate(0,0)"/>
<path d="" fill="#2978C0" transform="translate(0,0)"/>
<path d="" fill="#2B77C0" transform="translate(0,0)"/>
<path d="" fill="#3176BB" transform="translate(0,0)"/>
<path d="" fill="#4778B2" transform="translate(0,0)"/>
<path d="" fill="#4878B2" transform="translate(0,0)"/>
<path d="" fill="#3378BA" transform="translate(0,0)"/>
<path d="" fill="#4777B2" transform="translate(0,0)"/>
<path d="" fill="#2C75BE" transform="translate(0,0)"/>
<path d="" fill="#2974BF" transform="translate(0,0)"/>
<path d="" fill="#4878B0" transform="translate(0,0)"/>
<path d="" fill="#4576B3" transform="translate(0,0)"/>
<path d="" fill="#1E70C0" transform="translate(0,0)"/>
<path d="" fill="#3873B8" transform="translate(0,0)"/>
<path d="" fill="#3A70B6" transform="translate(0,0)"/>
<path d="" fill="#3170B6" transform="translate(0,0)"/>
<path d="" fill="#4072B3" transform="translate(0,0)"/>
<path d="" fill="#316EB8" transform="translate(0,0)"/>
<path d="" fill="#4878B0" transform="translate(0,0)"/>
<path d="" fill="#3F71B3" transform="translate(0,0)"/>
<path d="" fill="#3E69AE" transform="translate(0,0)"/>
<path d="" fill="#3E67B0" transform="translate(0,0)"/>
<path d="" fill="#436DAF" transform="translate(0,0)"/>
<path d="" fill="#406FB2" transform="translate(0,0)"/>
<path d="" fill="#3F6CB3" transform="translate(0,0)"/>
<path d="" fill="#446CAF" transform="translate(0,0)"/>
<path d="" fill="#4675B3" transform="translate(0,0)"/>
<path d="" fill="#436BAF" transform="translate(0,0)"/>
<path d="" fill="#4677B2" transform="translate(0,0)"/>
<path d="" fill="#4678B3" transform="translate(0,0)"/>
<path d="" fill="#416EB2" transform="translate(0,0)"/>
<path d="" fill="#436AAF" transform="translate(0,0)"/>
<path d="" fill="#4955B8" transform="translate(0,0)"/>
<path d="" fill="#456DAD" transform="translate(0,0)"/>
<path d="" fill="#4B6EAE" transform="translate(0,0)"/>
<path d="" fill="#4262AA" transform="translate(0,0)"/>
<path d="" fill="#4A61A9" transform="translate(0,0)"/>
<path d="" fill="#4661A7" transform="translate(0,0)"/>
<path d="" fill="#476FAD" transform="translate(0,0)"/>
<path d="" fill="#4879B1" transform="translate(0,0)"/>
<path d="" fill="#4674B0" transform="translate(0,0)"/>
<path d="" fill="#4A69AC" transform="translate(0,0)"/>
<path d="" fill="#4778B1" transform="translate(0,0)"/>
<path d="" fill="#4777B1" transform="translate(0,0)"/>
<path d="" fill="#4978B0" transform="translate(0,0)"/>
<path d="" fill="#4779B1" transform="translate(0,0)"/>
<path d="" fill="#4D5CA6" transform="translate(0,0)"/>
<path d="" fill="#4879B3" transform="translate(0,0)"/>
<path d="" fill="#1E8DD0" transform="translate(0,0)"/>
<path d="" fill="#4E5DA5" transform="translate(0,0)"/>
<path d="" fill="#4B69AB" transform="translate(0,0)"/>
<path d="" fill="#4D67A8" transform="translate(0,0)"/>
<path d="" fill="#4878B1" transform="translate(0,0)"/>
<path d="" fill="#4E64A8" transform="translate(0,0)"/>
<path d="" fill="#505BA3" transform="translate(0,0)"/>
<path d="" fill="#5050B5" transform="translate(0,0)"/>
<path d="" fill="#4877B1" transform="translate(0,0)"/>
<path d="" fill="#5160A6" transform="translate(0,0)"/>
<path d="" fill="#4977B2" transform="translate(0,0)"/>
<path d="" fill="#5062A7" transform="translate(0,0)"/>
<path d="" fill="#4D6FAC" transform="translate(0,0)"/>
<path d="" fill="#545EA3" transform="translate(0,0)"/>
<path d="" fill="#4777B0" transform="translate(0,0)"/>
<path d="" fill="#4877B1" transform="translate(0,0)"/>
<path d="" fill="#4877B1" transform="translate(0,0)"/>
<path d="" fill="#4D5BB3" transform="translate(0,0)"/>
<path d="" fill="#5161A4" transform="translate(0,0)"/>
<path d="" fill="#4878B1" transform="translate(0,0)"/>
<path d="" fill="#4F66A7" transform="translate(0,0)"/>
<path d="" fill="#4878B3" transform="translate(0,0)"/>
<path d="" fill="#4879B2" transform="translate(0,0)"/>
<path d="" fill="#2789C8" transform="translate(0,0)"/>
<path d="" fill="#4A71B2" transform="translate(0,0)"/>
<path d="" fill="#4F65A7" transform="translate(0,0)"/>
<path d="" fill="#4E6BA9" transform="translate(0,0)"/>
<path d="" fill="#4878B0" transform="translate(0,0)"/>
<path d="" fill="#4879B1" transform="translate(0,0)"/>
<path d="" fill="#4E6BA8" transform="translate(0,0)"/>
<path d="" fill="#4A6EB1" transform="translate(0,0)"/>
<path d="" fill="#5165A5" transform="translate(0,0)"/>
<path d="" fill="#4979B0" transform="translate(0,0)"/>
<path d="" fill="#4C66B1" transform="translate(0,0)"/>
<path d="" fill="#5B539B" transform="translate(0,0)"/>
<path d="" fill="#4D71AC" transform="translate(0,0)"/>
<path d="" fill="#604F99" transform="translate(0,0)"/>
<path d="" fill="#4778B1" transform="translate(0,0)"/>
<path d="" fill="#4D63B2" transform="translate(0,0)"/>
<path d="" fill="#4876B1" transform="translate(0,0)"/>
<path d="" fill="#4C66B2" transform="translate(0,0)"/>
<path d="" fill="#4878B3" transform="translate(0,0)"/>
<path d="" fill="#5C599E" transform="translate(0,0)"/>
<path d="" fill="#5F539A" transform="translate(0,0)"/>
<path d="" fill="#4778B0" transform="translate(0,0)"/>
<path d="" fill="#5C5C98" transform="translate(0,0)"/>
<path d="" fill="#60549C" transform="translate(0,0)"/>
<path d="" fill="#3A69C0" transform="translate(0,0)"/>
<path d="" fill="#5A3FB1" transform="translate(0,0)"/>
<path d="" fill="#5C5BA0" transform="translate(0,0)"/>
<path d="" fill="#4977AC" transform="translate(0,0)"/>
<path d="" fill="#4779B1" transform="translate(0,0)"/>
<path d="" fill="#61589B" transform="translate(0,0)"/>
<path d="" fill="#4878AF" transform="translate(0,0)"/>
<path d="" fill="#4878B1" transform="translate(0,0)"/>
<path d="" fill="#4879B1" transform="translate(0,0)"/>
<path d="" fill="#4878AF" transform="translate(0,0)"/>
<path d="" fill="#665098" transform="translate(0,0)"/>
<path d="" fill="#4B71AE" transform="translate(0,0)"/>
<path d="" fill="#5B5EA1" transform="translate(0,0)"/>
<path d="" fill="#5C5DA1" transform="translate(0,0)"/>
<path d="" fill="#5357AF" transform="translate(0,0)"/>
<path d="" fill="#564BAF" transform="translate(0,0)"/>
<path d="" fill="#4978B2" transform="translate(0,0)"/>
<path d="" fill="#4878B0" transform="translate(0,0)"/>
<path d="" fill="#625B9E" transform="translate(0,0)"/>
<path d="" fill="#4778B0" transform="translate(0,0)"/>
<path d="" fill="#4779B2" transform="translate(0,0)"/>
<path d="" fill="#73458B" transform="translate(0,0)"/>
<path d="" fill="#5B47AA" transform="translate(0,0)"/>
<path d="" fill="#4879B3" transform="translate(0,0)"/>
<path d="" fill="#4778B0" transform="translate(0,0)"/>
</svg>
